M48
; DRILL file {KiCad (6.0.8)} date Wed 26 Oct 2022 23:44:57 CEST
; FORMAT={-:-/ absolute / metric / decimal}
; #@! TF.CreationDate,2022-10-26T23:44:57+02:00
; #@! TF.GenerationSoftware,Kicad,Pcbnew,(6.0.8)
; #@! TF.FileFunction,Plated,1,2,PTH
FMAT,2
METRIC
; #@! TA.AperFunction,Plated,PTH,ComponentDrill
T1C0.350
; #@! TA.AperFunction,Plated,PTH,ViaDrill
T2C0.400
; #@! TA.AperFunction,Plated,PTH,ComponentDrill
T3C0.400
; #@! TA.AperFunction,Plated,PTH,ComponentDrill
T4C0.600
; #@! TA.AperFunction,Plated,PTH,ComponentDrill
T5C0.700
; #@! TA.AperFunction,Plated,PTH,ComponentDrill
T6C1.000
; #@! TA.AperFunction,Plated,PTH,ComponentDrill
T7C1.300
; #@! TA.AperFunction,Plated,PTH,ComponentDrill
T8C1.500
; #@! TA.AperFunction,Plated,PTH,ComponentDrill
T9C2.200
%
G90
G05
T1
X146.197Y-88.01
X147.098Y-87.108
X147.098Y-88.912
X148.0Y-86.207
X148.0Y-88.01
X148.0Y-89.813
X148.902Y-87.108
X148.902Y-88.912
X149.803Y-88.01
T2
X24.37Y-137.11
X35.86Y-111.88
X35.86Y-128.64
X35.91Y-77.72
X36.07Y-94.64
X39.8Y-137.5
X53.96Y-77.8
X54.11Y-128.85
X54.23Y-94.69
X54.26Y-111.88
X57.97Y-137.47
X64.97Y-105.73
X72.08Y-111.88
X72.22Y-77.8
X72.31Y-128.87
X72.44Y-94.71
X75.83Y-137.43
X83.26Y-106.29
X89.89Y-128.87
X90.03Y-77.7
X90.12Y-112.0
X90.18Y-94.74
X93.92Y-137.62
X101.22Y-106.23
X102.95Y-127.14
X108.01Y-77.84
X108.17Y-94.69
X108.29Y-112.23
X109.1Y-132.43
X110.14Y-126.55
X111.07Y-109.03
X112.67Y-119.72
X114.14Y-125.61
X117.91Y-136.84
X118.05Y-128.85
X126.16Y-94.67
X126.19Y-77.84
X126.58Y-112.0
X127.24Y-105.01
X129.31Y-86.7
X129.374Y-105.99
X129.57Y-109.8
X130.11Y-106.667
X130.11Y-137.15
X131.064Y-106.964
X132.023Y-107.245
X132.42Y-85.67
X133.095Y-107.258
X133.189Y-106.088
X133.22Y-95.3
X133.439Y-105.12
X133.49Y-84.717
X133.822Y-104.197
X134.65Y-114.49
X135.295Y-105.64
X135.695Y-106.558
X136.454Y-85.486
X137.331Y-102.458
X137.36Y-115.91
X137.39Y-85.0
X137.47Y-100.96
X137.54Y-76.75
X137.55Y-99.53
X138.68Y-72.05
X138.758Y-98.489
X138.8Y-99.52
X138.978Y-88.298
X139.11Y-97.553
X139.14Y-82.06
X139.19Y-103.99
X139.5Y-94.9
X139.63Y-76.17
X139.82Y-105.89
X140.434Y-105.102
X141.088Y-89.087
X142.25Y-88.01
X142.299Y-106.592
X142.321Y-98.7
X142.358Y-92.867
X142.557Y-102.42
X142.72Y-81.12
X142.999Y-105.815
X143.028Y-93.743
X143.143Y-94.736
X143.57Y-128.88
X143.861Y-95.454
X144.15Y-119.17
X144.28Y-79.74
X144.86Y-95.481
X144.89Y-115.36
X144.971Y-98.929
X145.235Y-104.075
X145.278Y-96.389
X145.42Y-88.71
X145.661Y-94.303
X146.094Y-92.686
X146.33Y-89.63
X146.69Y-98.95
X146.88Y-74.079
X146.89Y-80.87
X147.48Y-103.28
X147.95Y-75.08
X147.96Y-126.73
X148.02Y-110.77
X148.028Y-91.219
X148.66Y-105.69
X148.699Y-97.106
X149.509Y-95.906
X149.699Y-96.908
X149.99Y-94.93
X150.11Y-103.895
X150.475Y-88.645
X150.731Y-83.43
X150.89Y-119.3
X150.898Y-87.739
X151.25Y-82.48
X151.25Y-102.89
X152.259Y-82.437
X153.255Y-82.525
X153.46Y-106.1
X153.5Y-99.46
X154.154Y-86.784
X154.322Y-83.547
X154.443Y-84.539
X154.566Y-101.314
X154.66Y-85.515
X154.852Y-103.778
X155.085Y-86.42
X155.15Y-107.35
X155.24Y-76.89
X155.276Y-83.249
X156.227Y-100.549
X156.33Y-104.68
X156.504Y-97.63
X156.61Y-83.16
X156.7Y-79.71
X156.91Y-96.02
X156.91Y-99.323
X156.98Y-127.09
X157.02Y-133.49
X157.231Y-92.448
X157.29Y-78.0
X157.31Y-98.33
X157.478Y-103.832
X158.53Y-110.65
X159.26Y-108.02
X160.831Y-83.147
X162.16Y-128.76
X162.22Y-115.38
X162.55Y-82.63
X163.5Y-112.32
X163.5Y-122.475
X163.59Y-103.01
X163.924Y-110.529
X164.327Y-109.614
X164.649Y-108.668
X164.679Y-106.741
X165.02Y-107.74
X165.03Y-105.805
X165.17Y-137.66
X166.023Y-105.657
X166.45Y-88.01
X167.229Y-105.875
X168.96Y-111.27
X169.013Y-110.151
X169.355Y-109.212
X169.915Y-108.384
X170.113Y-107.404
X170.229Y-106.411
X172.0Y-90.52
X173.07Y-106.96
X180.0Y-77.84
X180.05Y-128.63
X180.26Y-94.51
X180.39Y-111.6
X181.77Y-133.3
X190.71Y-132.16
X190.88Y-90.49
X193.17Y-127.28
X194.85Y-106.57
X198.16Y-94.71
X198.16Y-111.47
X198.16Y-128.76
X198.22Y-77.68
X202.46Y-137.23
X212.62Y-106.18
X212.88Y-90.11
X216.07Y-94.78
X216.14Y-111.81
X216.19Y-77.8
X216.27Y-128.9
X220.32Y-137.31
X230.99Y-106.18
X234.04Y-94.71
X234.18Y-128.76
X234.21Y-77.76
X234.25Y-111.81
X238.33Y-137.15
X249.15Y-105.98
X252.02Y-112.01
X252.15Y-77.88
X252.15Y-128.83
X252.29Y-94.78
X256.39Y-137.39
X270.13Y-111.67
X270.2Y-128.97
X270.28Y-77.72
X270.33Y-94.58
T3
X38.35Y-88.0
X38.35Y-122.0
X38.833Y-86.833
X38.833Y-89.167
X38.833Y-120.833
X38.833Y-123.167
X40.0Y-86.35
X40.0Y-89.65
X40.0Y-120.35
X40.0Y-123.65
X41.167Y-86.833
X41.167Y-89.167
X41.167Y-120.833
X41.167Y-123.167
X41.65Y-88.0
X41.65Y-122.0
X132.84Y-132.4
X132.85Y-75.5
X132.85Y-100.5
X133.323Y-131.233
X133.323Y-133.567
X133.333Y-74.333
X133.333Y-76.667
X133.333Y-99.333
X133.333Y-101.667
X134.49Y-130.75
X134.49Y-134.05
X134.5Y-73.85
X134.5Y-77.15
X134.5Y-98.85
X134.5Y-102.15
X135.657Y-131.233
X135.657Y-133.567
X135.667Y-74.333
X135.667Y-76.667
X135.667Y-99.333
X135.667Y-101.667
X136.14Y-132.4
X136.15Y-75.5
X136.15Y-100.5
X159.84Y-132.4
X159.85Y-75.5
X159.85Y-100.5
X160.323Y-131.233
X160.323Y-133.567
X160.333Y-74.333
X160.333Y-76.667
X160.333Y-99.333
X160.333Y-101.667
X161.49Y-130.75
X161.49Y-134.05
X161.5Y-73.85
X161.5Y-77.15
X161.5Y-98.85
X161.5Y-102.15
X162.657Y-131.233
X162.657Y-133.567
X162.667Y-74.333
X162.667Y-76.667
X162.667Y-99.333
X162.667Y-101.667
X163.14Y-132.4
X163.15Y-75.5
X163.15Y-100.5
X254.35Y-88.0
X254.35Y-122.0
X254.833Y-86.833
X254.833Y-89.167
X254.833Y-120.833
X254.833Y-123.167
X256.0Y-86.35
X256.0Y-89.65
X256.0Y-120.35
X256.0Y-123.65
X257.167Y-86.833
X257.167Y-89.167
X257.167Y-120.833
X257.167Y-123.167
X257.65Y-88.0
X257.65Y-122.0
T5
X161.33Y-84.85
T6
X132.81Y-121.79
X135.35Y-121.79
X137.89Y-121.79
X140.43Y-121.79
X142.97Y-121.79
X145.51Y-106.5
X145.51Y-121.0
X148.01Y-121.0
X150.51Y-106.5
X150.51Y-121.0
X158.81Y-72.75
X161.35Y-72.75
X163.89Y-72.75
T7
X31.0Y-73.6
X31.0Y-90.6
X31.0Y-107.6
X31.0Y-124.6
X36.0Y-75.7
X36.0Y-92.7
X36.0Y-109.7
X36.0Y-126.7
X49.0Y-73.6
X49.0Y-90.6
X49.0Y-107.6
X49.0Y-124.6
X54.0Y-75.7
X54.0Y-92.7
X54.0Y-109.7
X54.0Y-126.7
X67.0Y-73.6
X67.0Y-90.6
X67.0Y-107.6
X67.0Y-124.6
X72.0Y-75.7
X72.0Y-92.7
X72.0Y-109.7
X72.0Y-126.7
X85.0Y-73.6
X85.0Y-90.6
X85.0Y-107.6
X85.0Y-124.6
X90.0Y-75.7
X90.0Y-92.7
X90.0Y-109.7
X90.0Y-126.7
X103.0Y-73.6
X103.0Y-90.6
X103.0Y-107.6
X103.0Y-124.6
X108.0Y-75.7
X108.0Y-92.7
X108.0Y-109.7
X108.0Y-126.7
X112.01Y-124.6
X117.01Y-126.7
X121.0Y-73.6
X121.0Y-90.6
X121.0Y-107.6
X121.0Y-124.6
X126.0Y-75.7
X126.0Y-92.7
X126.0Y-109.7
X126.0Y-126.7
X139.0Y-107.6
X139.0Y-124.6
X144.0Y-109.7
X144.0Y-126.7
X147.99Y-124.6
X148.01Y-107.6
X152.99Y-126.7
X153.01Y-109.7
X157.0Y-107.6
X157.0Y-124.6
X162.0Y-109.7
X162.0Y-126.7
X175.0Y-73.6
X175.0Y-90.6
X175.0Y-107.6
X175.0Y-124.6
X180.0Y-75.7
X180.0Y-92.7
X180.0Y-109.7
X180.0Y-126.7
X183.99Y-124.6
X188.99Y-126.7
X193.0Y-73.6
X193.0Y-90.6
X193.0Y-107.6
X193.0Y-124.6
X198.0Y-75.7
X198.0Y-92.7
X198.0Y-109.7
X198.0Y-126.7
X211.0Y-73.6
X211.0Y-90.6
X211.0Y-107.6
X211.0Y-124.6
X216.0Y-75.7
X216.0Y-92.7
X216.0Y-109.7
X216.0Y-126.7
X229.0Y-73.6
X229.0Y-90.6
X229.0Y-107.6
X229.0Y-124.6
X234.0Y-75.7
X234.0Y-92.7
X234.0Y-109.7
X234.0Y-126.7
X247.0Y-73.6
X247.0Y-90.6
X247.0Y-107.6
X247.0Y-124.6
X252.0Y-75.7
X252.0Y-92.7
X252.0Y-109.7
X252.0Y-126.7
X265.0Y-73.6
X265.0Y-90.6
X265.0Y-107.6
X265.0Y-124.6
X270.0Y-75.7
X270.0Y-92.7
X270.0Y-109.7
X270.0Y-126.7
T9
X40.0Y-88.0
X40.0Y-122.0
X134.49Y-132.4
X134.5Y-75.5
X134.5Y-100.5
X161.49Y-132.4
X161.5Y-75.5
X161.5Y-100.5
X256.0Y-88.0
X256.0Y-122.0
T4
G00X143.67Y-72.48
M15
G01X143.67Y-71.88
M16
G05
G00X143.67Y-76.91
M15
G01X143.67Y-75.81
M16
G05
G00X152.31Y-72.48
M15
G01X152.31Y-71.88
M16
G05
G00X152.31Y-76.91
M15
G01X152.31Y-75.81
M16
G05
T8
G00X142.41Y-114.15
M15
G01X142.41Y-112.85
M16
G05
G00X153.61Y-114.15
M15
G01X153.61Y-112.85
M16
G05
T0
M30
