M48
; DRILL file {KiCad (6.0.8)} date Wed 26 Oct 2022 23:44:57 CEST
; FORMAT={-:-/ absolute / metric / decimal}
; #@! TF.CreationDate,2022-10-26T23:44:57+02:00
; #@! TF.GenerationSoftware,Kicad,Pcbnew,(6.0.8)
; #@! TF.FileFunction,NonPlated,1,2,NPTH
FMAT,2
METRIC
; #@! TA.AperFunction,NonPlated,NPTH,ComponentDrill
T1C0.650
; #@! TA.AperFunction,NonPlated,NPTH,ComponentDrill
T2C1.702
; #@! TA.AperFunction,NonPlated,NPTH,ComponentDrill
T3C3.000
; #@! TA.AperFunction,NonPlated,NPTH,ComponentDrill
T4C3.429
%
G90
G05
T1
X145.1Y-75.83
X150.88Y-75.83
T2
X25.5Y-79.5
X25.5Y-96.5
X25.5Y-113.5
X25.5Y-130.5
X36.5Y-79.5
X36.5Y-96.5
X36.5Y-113.5
X36.5Y-130.5
X43.5Y-79.5
X43.5Y-96.5
X43.5Y-113.5
X43.5Y-130.5
X54.5Y-79.5
X54.5Y-96.5
X54.5Y-113.5
X54.5Y-130.5
X61.5Y-79.5
X61.5Y-96.5
X61.5Y-113.5
X61.5Y-130.5
X72.5Y-79.5
X72.5Y-96.5
X72.5Y-113.5
X72.5Y-130.5
X79.5Y-79.5
X79.5Y-96.5
X79.5Y-113.5
X79.5Y-130.5
X90.5Y-79.5
X90.5Y-96.5
X90.5Y-113.5
X90.5Y-130.5
X97.5Y-79.5
X97.5Y-96.5
X97.5Y-113.5
X97.5Y-130.5
X106.51Y-130.5
X108.5Y-79.5
X108.5Y-96.5
X108.5Y-113.5
X108.5Y-130.5
X115.5Y-79.5
X115.5Y-96.5
X115.5Y-113.5
X115.5Y-130.5
X117.51Y-130.5
X126.5Y-79.5
X126.5Y-96.5
X126.5Y-113.5
X126.5Y-130.5
X133.5Y-113.5
X133.5Y-130.5
X142.49Y-130.5
X142.51Y-113.5
X144.5Y-113.5
X144.5Y-130.5
X151.5Y-113.5
X151.5Y-130.5
X153.49Y-130.5
X153.51Y-113.5
X162.5Y-113.5
X162.5Y-130.5
X169.5Y-79.5
X169.5Y-96.5
X169.5Y-113.5
X169.5Y-130.5
X178.49Y-130.5
X180.5Y-79.5
X180.5Y-96.5
X180.5Y-113.5
X180.5Y-130.5
X187.5Y-79.5
X187.5Y-96.5
X187.5Y-113.5
X187.5Y-130.5
X189.49Y-130.5
X198.5Y-79.5
X198.5Y-96.5
X198.5Y-113.5
X198.5Y-130.5
X205.5Y-79.5
X205.5Y-96.5
X205.5Y-113.5
X205.5Y-130.5
X216.5Y-79.5
X216.5Y-96.5
X216.5Y-113.5
X216.5Y-130.5
X223.5Y-79.5
X223.5Y-96.5
X223.5Y-113.5
X223.5Y-130.5
X234.5Y-79.5
X234.5Y-96.5
X234.5Y-113.5
X234.5Y-130.5
X241.5Y-79.5
X241.5Y-96.5
X241.5Y-113.5
X241.5Y-130.5
X252.5Y-79.5
X252.5Y-96.5
X252.5Y-113.5
X252.5Y-130.5
X259.5Y-79.5
X259.5Y-96.5
X259.5Y-113.5
X259.5Y-130.5
X270.5Y-79.5
X270.5Y-96.5
X270.5Y-113.5
X270.5Y-130.5
T3
X26.0Y-83.25
X26.0Y-100.25
X26.0Y-117.25
X26.0Y-134.25
X31.0Y-85.45
X31.0Y-102.45
X31.0Y-119.45
X31.0Y-136.45
X44.0Y-83.25
X44.0Y-100.25
X44.0Y-117.25
X44.0Y-134.25
X49.0Y-85.45
X49.0Y-102.45
X49.0Y-119.45
X49.0Y-136.45
X62.0Y-83.25
X62.0Y-100.25
X62.0Y-117.25
X62.0Y-134.25
X67.0Y-85.45
X67.0Y-102.45
X67.0Y-119.45
X67.0Y-136.45
X80.0Y-83.25
X80.0Y-100.25
X80.0Y-117.25
X80.0Y-134.25
X85.0Y-85.45
X85.0Y-102.45
X85.0Y-119.45
X85.0Y-136.45
X98.0Y-83.25
X98.0Y-100.25
X98.0Y-117.25
X98.0Y-134.25
X103.0Y-85.45
X103.0Y-102.45
X103.0Y-119.45
X103.0Y-136.45
X107.01Y-134.25
X112.01Y-136.45
X116.0Y-83.25
X116.0Y-100.25
X116.0Y-117.25
X116.0Y-134.25
X121.0Y-85.45
X121.0Y-102.45
X121.0Y-119.45
X121.0Y-136.45
X134.0Y-117.25
X134.0Y-134.25
X139.0Y-119.45
X139.0Y-136.45
X142.99Y-134.25
X143.01Y-117.25
X147.99Y-136.45
X148.01Y-119.45
X152.0Y-117.25
X152.0Y-134.25
X157.0Y-119.45
X157.0Y-136.45
X170.0Y-83.25
X170.0Y-100.25
X170.0Y-117.25
X170.0Y-134.25
X175.0Y-85.45
X175.0Y-102.45
X175.0Y-119.45
X175.0Y-136.45
X178.99Y-134.25
X183.99Y-136.45
X188.0Y-83.25
X188.0Y-100.25
X188.0Y-117.25
X188.0Y-134.25
X193.0Y-85.45
X193.0Y-102.45
X193.0Y-119.45
X193.0Y-136.45
X206.0Y-83.25
X206.0Y-100.25
X206.0Y-117.25
X206.0Y-134.25
X211.0Y-85.45
X211.0Y-102.45
X211.0Y-119.45
X211.0Y-136.45
X224.0Y-83.25
X224.0Y-100.25
X224.0Y-117.25
X224.0Y-134.25
X229.0Y-85.45
X229.0Y-102.45
X229.0Y-119.45
X229.0Y-136.45
X242.0Y-83.25
X242.0Y-100.25
X242.0Y-117.25
X242.0Y-134.25
X247.0Y-85.45
X247.0Y-102.45
X247.0Y-119.45
X247.0Y-136.45
X260.0Y-83.25
X260.0Y-100.25
X260.0Y-117.25
X260.0Y-134.25
X265.0Y-85.45
X265.0Y-102.45
X265.0Y-119.45
X265.0Y-136.45
T4
X31.0Y-79.5
X31.0Y-96.5
X31.0Y-113.5
X31.0Y-130.5
X49.0Y-79.5
X49.0Y-96.5
X49.0Y-113.5
X49.0Y-130.5
X67.0Y-79.5
X67.0Y-96.5
X67.0Y-113.5
X67.0Y-130.5
X85.0Y-79.5
X85.0Y-96.5
X85.0Y-113.5
X85.0Y-130.5
X103.0Y-79.5
X103.0Y-96.5
X103.0Y-113.5
X103.0Y-130.5
X112.01Y-130.5
X121.0Y-79.5
X121.0Y-96.5
X121.0Y-113.5
X121.0Y-130.5
X139.0Y-113.5
X139.0Y-130.5
X147.99Y-130.5
X148.01Y-113.5
X157.0Y-113.5
X157.0Y-130.5
X175.0Y-79.5
X175.0Y-96.5
X175.0Y-113.5
X175.0Y-130.5
X183.99Y-130.5
X193.0Y-79.5
X193.0Y-96.5
X193.0Y-113.5
X193.0Y-130.5
X211.0Y-79.5
X211.0Y-96.5
X211.0Y-113.5
X211.0Y-130.5
X229.0Y-79.5
X229.0Y-96.5
X229.0Y-113.5
X229.0Y-130.5
X247.0Y-79.5
X247.0Y-96.5
X247.0Y-113.5
X247.0Y-130.5
X265.0Y-79.5
X265.0Y-96.5
X265.0Y-113.5
X265.0Y-130.5
T0
M30
