G04 #@! TF.GenerationSoftware,KiCad,Pcbnew,(6.0.8)*
G04 #@! TF.CreationDate,2022-10-26T23:44:54+02:00*
G04 #@! TF.ProjectId,RP2040_tmp,52503230-3430-45f7-946d-702e6b696361,2.3*
G04 #@! TF.SameCoordinates,Original*
G04 #@! TF.FileFunction,Legend,Top*
G04 #@! TF.FilePolarity,Positive*
%FSLAX46Y46*%
G04 Gerber Fmt 4.6, Leading zero omitted, Abs format (unit mm)*
G04 Created by KiCad (PCBNEW (6.0.8)) date 2022-10-26 23:44:54*
%MOMM*%
%LPD*%
G01*
G04 APERTURE LIST*
G04 Aperture macros list*
%AMRoundRect*
0 Rectangle with rounded corners*
0 $1 Rounding radius*
0 $2 $3 $4 $5 $6 $7 $8 $9 X,Y pos of 4 corners*
0 Add a 4 corners polygon primitive as box body*
4,1,4,$2,$3,$4,$5,$6,$7,$8,$9,$2,$3,0*
0 Add four circle primitives for the rounded corners*
1,1,$1+$1,$2,$3*
1,1,$1+$1,$4,$5*
1,1,$1+$1,$6,$7*
1,1,$1+$1,$8,$9*
0 Add four rect primitives between the rounded corners*
20,1,$1+$1,$2,$3,$4,$5,0*
20,1,$1+$1,$4,$5,$6,$7,0*
20,1,$1+$1,$6,$7,$8,$9,0*
20,1,$1+$1,$8,$9,$2,$3,0*%
G04 Aperture macros list end*
%ADD10C,0.150000*%
%ADD11C,0.120000*%
%ADD12C,0.800000*%
%ADD13C,4.500000*%
%ADD14C,3.100000*%
%ADD15C,1.801800*%
%ADD16C,3.529000*%
%ADD17C,2.200000*%
%ADD18RoundRect,0.300000X0.475000X-0.250000X0.475000X0.250000X-0.475000X0.250000X-0.475000X-0.250000X0*%
%ADD19RoundRect,0.050000X-0.450000X-0.400000X0.450000X-0.400000X0.450000X0.400000X-0.450000X0.400000X0*%
%ADD20RoundRect,0.050000X-0.087605X-0.595672X0.601835X-0.017163X0.087605X0.595672X-0.601835X0.017163X0*%
%ADD21RoundRect,0.050000X0.373704X0.472065X-0.512623X0.315781X-0.373704X-0.472065X0.512623X-0.315781X0*%
%ADD22RoundRect,0.050000X-0.512623X-0.315781X0.373704X-0.472065X0.512623X0.315781X-0.373704X0.472065X0*%
%ADD23RoundRect,0.300000X-0.512652X-0.159099X-0.159099X-0.512652X0.512652X0.159099X0.159099X0.512652X0*%
%ADD24RoundRect,0.050000X-0.238791X-0.552701X0.576886X-0.172345X0.238791X0.552701X-0.576886X0.172345X0*%
%ADD25RoundRect,0.050000X0.286054X0.529786X-0.559670X0.221968X-0.286054X-0.529786X0.559670X-0.221968X0*%
%ADD26RoundRect,0.050000X-0.601835X-0.017163X0.087605X-0.595672X0.601835X0.017163X-0.087605X0.595672X0*%
%ADD27RoundRect,0.050000X-0.601041X0.035355X0.035355X-0.601041X0.601041X-0.035355X-0.035355X0.601041X0*%
%ADD28RoundRect,0.050000X-0.559670X-0.221968X0.286054X-0.529786X0.559670X0.221968X-0.286054X0.529786X0*%
%ADD29RoundRect,0.300000X0.450000X-0.262500X0.450000X0.262500X-0.450000X0.262500X-0.450000X-0.262500X0*%
%ADD30RoundRect,0.050000X0.850000X-0.850000X0.850000X0.850000X-0.850000X0.850000X-0.850000X-0.850000X0*%
%ADD31O,1.800000X1.800000*%
%ADD32RoundRect,0.050000X0.087605X0.595672X-0.601835X0.017163X-0.087605X-0.595672X0.601835X-0.017163X0*%
%ADD33RoundRect,0.147300X0.360700X-0.145950X0.360700X0.145950X-0.360700X0.145950X-0.360700X-0.145950X0*%
%ADD34RoundRect,0.157300X0.355700X-0.160950X0.355700X0.160950X-0.355700X0.160950X-0.355700X-0.160950X0*%
%ADD35RoundRect,0.159300X0.348700X-0.163950X0.348700X0.163950X-0.348700X0.163950X-0.348700X-0.163950X0*%
%ADD36RoundRect,0.173300X0.337200X-0.184950X0.337200X0.184950X-0.337200X0.184950X-0.337200X-0.184950X0*%
%ADD37RoundRect,0.050000X0.450000X0.400000X-0.450000X0.400000X-0.450000X-0.400000X0.450000X-0.400000X0*%
%ADD38RoundRect,0.300000X-0.159099X0.512652X-0.512652X0.159099X0.159099X-0.512652X0.512652X-0.159099X0*%
%ADD39RoundRect,0.300000X0.132583X-0.503814X0.503814X-0.132583X-0.132583X0.503814X-0.503814X0.132583X0*%
%ADD40RoundRect,0.050000X0.707107X0.000000X0.000000X0.707107X-0.707107X0.000000X0.000000X-0.707107X0*%
%ADD41RoundRect,0.050000X1.000000X-1.000000X1.000000X1.000000X-1.000000X1.000000X-1.000000X-1.000000X0*%
%ADD42C,2.100000*%
%ADD43RoundRect,0.050000X1.000000X-1.600000X1.000000X1.600000X-1.000000X1.600000X-1.000000X-1.600000X0*%
%ADD44RoundRect,0.050000X0.576886X0.172345X-0.238791X0.552701X-0.576886X-0.172345X0.238791X-0.552701X0*%
%ADD45RoundRect,0.187500X-0.137500X-0.462500X0.137500X-0.462500X0.137500X0.462500X-0.137500X0.462500X0*%
%ADD46RoundRect,0.187500X-0.362500X-0.137500X0.362500X-0.137500X0.362500X0.137500X-0.362500X0.137500X0*%
%ADD47RoundRect,0.162500X-0.112500X-0.487500X0.112500X-0.487500X0.112500X0.487500X-0.112500X0.487500X0*%
%ADD48RoundRect,0.225000X-0.175000X-0.425000X0.175000X-0.425000X0.175000X0.425000X-0.175000X0.425000X0*%
%ADD49RoundRect,0.050000X0.035355X0.601041X-0.601041X-0.035355X-0.035355X-0.601041X0.601041X0.035355X0*%
%ADD50RoundRect,0.050000X-0.589711X-0.121410X0.189711X-0.571410X0.589711X0.121410X-0.189711X0.571410X0*%
%ADD51RoundRect,0.100000X-0.238649X-0.309359X0.309359X0.238649X0.238649X0.309359X-0.309359X-0.238649X0*%
%ADD52RoundRect,0.100000X0.238649X-0.309359X0.309359X-0.238649X-0.238649X0.309359X-0.309359X0.238649X0*%
%ADD53RoundRect,0.194000X0.000000X-2.059095X2.059095X0.000000X0.000000X2.059095X-2.059095X0.000000X0*%
%ADD54RoundRect,0.300000X-0.503814X-0.132583X-0.132583X-0.503814X0.503814X0.132583X0.132583X0.503814X0*%
%ADD55RoundRect,0.300000X0.512652X0.159099X0.159099X0.512652X-0.512652X-0.159099X-0.159099X-0.512652X0*%
%ADD56RoundRect,0.050000X0.601835X0.017163X-0.087605X0.595672X-0.601835X-0.017163X0.087605X-0.595672X0*%
%ADD57RoundRect,0.300000X-0.132583X0.503814X-0.503814X0.132583X0.132583X-0.503814X0.503814X-0.132583X0*%
%ADD58RoundRect,0.050000X-0.400000X0.450000X-0.400000X-0.450000X0.400000X-0.450000X0.400000X0.450000X0*%
%ADD59RoundRect,0.200000X0.150000X-0.512500X0.150000X0.512500X-0.150000X0.512500X-0.150000X-0.512500X0*%
%ADD60C,0.750000*%
%ADD61RoundRect,0.050000X0.300000X0.725000X-0.300000X0.725000X-0.300000X-0.725000X0.300000X-0.725000X0*%
%ADD62RoundRect,0.050000X0.150000X0.725000X-0.150000X0.725000X-0.150000X-0.725000X0.150000X-0.725000X0*%
%ADD63O,1.100000X2.200000*%
%ADD64O,1.100000X1.700000*%
%ADD65RoundRect,0.050000X0.483150X0.359258X-0.413425X0.437698X-0.483150X-0.359258X0.413425X-0.437698X0*%
%ADD66RoundRect,0.300000X-0.450000X0.262500X-0.450000X-0.262500X0.450000X-0.262500X0.450000X0.262500X0*%
%ADD67RoundRect,0.050000X0.189711X0.571410X-0.589711X0.121410X-0.189711X-0.571410X0.589711X-0.121410X0*%
%ADD68RoundRect,0.050000X-0.850000X0.850000X-0.850000X-0.850000X0.850000X-0.850000X0.850000X0.850000X0*%
%ADD69RoundRect,0.050000X0.070711X0.919239X-0.919239X-0.070711X-0.070711X-0.919239X0.919239X0.070711X0*%
%ADD70RoundRect,0.200000X-0.353553X-0.565685X0.565685X0.353553X0.353553X0.565685X-0.565685X-0.353553X0*%
%ADD71RoundRect,0.300000X-0.625000X0.375000X-0.625000X-0.375000X0.625000X-0.375000X0.625000X0.375000X0*%
%ADD72RoundRect,0.050000X-0.413425X-0.437698X0.483150X-0.359258X0.413425X0.437698X-0.483150X0.359258X0*%
G04 APERTURE END LIST*
D10*
X152499047Y-73572380D02*
X152499047Y-74286666D01*
X152546666Y-74429523D01*
X152641904Y-74524761D01*
X152784761Y-74572380D01*
X152880000Y-74572380D01*
X151546666Y-74572380D02*
X152022857Y-74572380D01*
X152022857Y-73572380D01*
X150641904Y-74477142D02*
X150689523Y-74524761D01*
X150832380Y-74572380D01*
X150927619Y-74572380D01*
X151070476Y-74524761D01*
X151165714Y-74429523D01*
X151213333Y-74334285D01*
X151260952Y-74143809D01*
X151260952Y-74000952D01*
X151213333Y-73810476D01*
X151165714Y-73715238D01*
X151070476Y-73620000D01*
X150927619Y-73572380D01*
X150832380Y-73572380D01*
X150689523Y-73620000D01*
X150641904Y-73667619D01*
X149927619Y-73572380D02*
X149927619Y-74286666D01*
X149975238Y-74429523D01*
X150070476Y-74524761D01*
X150213333Y-74572380D01*
X150308571Y-74572380D01*
X148975238Y-74572380D02*
X149451428Y-74572380D01*
X149451428Y-73572380D01*
X148070476Y-74477142D02*
X148118095Y-74524761D01*
X148260952Y-74572380D01*
X148356190Y-74572380D01*
X148499047Y-74524761D01*
X148594285Y-74429523D01*
X148641904Y-74334285D01*
X148689523Y-74143809D01*
X148689523Y-74000952D01*
X148641904Y-73810476D01*
X148594285Y-73715238D01*
X148499047Y-73620000D01*
X148356190Y-73572380D01*
X148260952Y-73572380D01*
X148118095Y-73620000D01*
X148070476Y-73667619D01*
X147356190Y-73572380D02*
X147356190Y-74286666D01*
X147403809Y-74429523D01*
X147499047Y-74524761D01*
X147641904Y-74572380D01*
X147737142Y-74572380D01*
X146403809Y-74572380D02*
X146880000Y-74572380D01*
X146880000Y-73572380D01*
X145499047Y-74477142D02*
X145546666Y-74524761D01*
X145689523Y-74572380D01*
X145784761Y-74572380D01*
X145927619Y-74524761D01*
X146022857Y-74429523D01*
X146070476Y-74334285D01*
X146118095Y-74143809D01*
X146118095Y-74000952D01*
X146070476Y-73810476D01*
X146022857Y-73715238D01*
X145927619Y-73620000D01*
X145784761Y-73572380D01*
X145689523Y-73572380D01*
X145546666Y-73620000D01*
X145499047Y-73667619D01*
X144784761Y-73572380D02*
X144784761Y-74286666D01*
X144832380Y-74429523D01*
X144927619Y-74524761D01*
X145070476Y-74572380D01*
X145165714Y-74572380D01*
X143832380Y-74572380D02*
X144308571Y-74572380D01*
X144308571Y-73572380D01*
X142927619Y-74477142D02*
X142975238Y-74524761D01*
X143118095Y-74572380D01*
X143213333Y-74572380D01*
X143356190Y-74524761D01*
X143451428Y-74429523D01*
X143499047Y-74334285D01*
X143546666Y-74143809D01*
X143546666Y-74000952D01*
X143499047Y-73810476D01*
X143451428Y-73715238D01*
X143356190Y-73620000D01*
X143213333Y-73572380D01*
X143118095Y-73572380D01*
X142975238Y-73620000D01*
X142927619Y-73667619D01*
X157367142Y-78417142D02*
X157319523Y-78464761D01*
X157176666Y-78512380D01*
X157081428Y-78512380D01*
X156938571Y-78464761D01*
X156843333Y-78369523D01*
X156795714Y-78274285D01*
X156748095Y-78083809D01*
X156748095Y-77940952D01*
X156795714Y-77750476D01*
X156843333Y-77655238D01*
X156938571Y-77560000D01*
X157081428Y-77512380D01*
X157176666Y-77512380D01*
X157319523Y-77560000D01*
X157367142Y-77607619D01*
X158319523Y-78512380D02*
X157748095Y-78512380D01*
X158033809Y-78512380D02*
X158033809Y-77512380D01*
X157938571Y-77655238D01*
X157843333Y-77750476D01*
X157748095Y-77798095D01*
X158652857Y-77512380D02*
X159319523Y-77512380D01*
X158890952Y-78512380D01*
X163113333Y-83217142D02*
X163065714Y-83264761D01*
X162922857Y-83312380D01*
X162827619Y-83312380D01*
X162684761Y-83264761D01*
X162589523Y-83169523D01*
X162541904Y-83074285D01*
X162494285Y-82883809D01*
X162494285Y-82740952D01*
X162541904Y-82550476D01*
X162589523Y-82455238D01*
X162684761Y-82360000D01*
X162827619Y-82312380D01*
X162922857Y-82312380D01*
X163065714Y-82360000D01*
X163113333Y-82407619D01*
X164065714Y-83312380D02*
X163494285Y-83312380D01*
X163780000Y-83312380D02*
X163780000Y-82312380D01*
X163684761Y-82455238D01*
X163589523Y-82550476D01*
X163494285Y-82598095D01*
X144447142Y-79717142D02*
X144399523Y-79764761D01*
X144256666Y-79812380D01*
X144161428Y-79812380D01*
X144018571Y-79764761D01*
X143923333Y-79669523D01*
X143875714Y-79574285D01*
X143828095Y-79383809D01*
X143828095Y-79240952D01*
X143875714Y-79050476D01*
X143923333Y-78955238D01*
X144018571Y-78860000D01*
X144161428Y-78812380D01*
X144256666Y-78812380D01*
X144399523Y-78860000D01*
X144447142Y-78907619D01*
X145399523Y-79812380D02*
X144828095Y-79812380D01*
X145113809Y-79812380D02*
X145113809Y-78812380D01*
X145018571Y-78955238D01*
X144923333Y-79050476D01*
X144828095Y-79098095D01*
X146018571Y-78812380D02*
X146113809Y-78812380D01*
X146209047Y-78860000D01*
X146256666Y-78907619D01*
X146304285Y-79002857D01*
X146351904Y-79193333D01*
X146351904Y-79431428D01*
X146304285Y-79621904D01*
X146256666Y-79717142D01*
X146209047Y-79764761D01*
X146113809Y-79812380D01*
X146018571Y-79812380D01*
X145923333Y-79764761D01*
X145875714Y-79717142D01*
X145828095Y-79621904D01*
X145780476Y-79431428D01*
X145780476Y-79193333D01*
X145828095Y-79002857D01*
X145875714Y-78907619D01*
X145923333Y-78860000D01*
X146018571Y-78812380D01*
X158114686Y-85020389D02*
X158114686Y-85087732D01*
X158047342Y-85222419D01*
X157979999Y-85289763D01*
X157845311Y-85357106D01*
X157710624Y-85357106D01*
X157609609Y-85323435D01*
X157441250Y-85222419D01*
X157340235Y-85121404D01*
X157239220Y-84953045D01*
X157205548Y-84852030D01*
X157205548Y-84717343D01*
X157272892Y-84582656D01*
X157340235Y-84515312D01*
X157474922Y-84447969D01*
X157542266Y-84447969D01*
X158081014Y-83774534D02*
X157946327Y-83909221D01*
X157912655Y-84010236D01*
X157912655Y-84077580D01*
X157946327Y-84245938D01*
X158047342Y-84414297D01*
X158316716Y-84683671D01*
X158417731Y-84717343D01*
X158485075Y-84717343D01*
X158586090Y-84683671D01*
X158720777Y-84548984D01*
X158754449Y-84447969D01*
X158754449Y-84380625D01*
X158720777Y-84279610D01*
X158552418Y-84111251D01*
X158451403Y-84077580D01*
X158384060Y-84077580D01*
X158283044Y-84111251D01*
X158148357Y-84245938D01*
X158114686Y-84346954D01*
X158114686Y-84414297D01*
X158148357Y-84515312D01*
X153684687Y-89480389D02*
X153684687Y-89547732D01*
X153617343Y-89682419D01*
X153550000Y-89749763D01*
X153415312Y-89817106D01*
X153280625Y-89817106D01*
X153179610Y-89783435D01*
X153011251Y-89682419D01*
X152910236Y-89581404D01*
X152809221Y-89413045D01*
X152775549Y-89312030D01*
X152775549Y-89177343D01*
X152842893Y-89042656D01*
X152910236Y-88975312D01*
X153044923Y-88907969D01*
X153112267Y-88907969D01*
X153280625Y-88604923D02*
X153718358Y-88167190D01*
X153752030Y-88672267D01*
X153853045Y-88571251D01*
X153954061Y-88537580D01*
X154021404Y-88537580D01*
X154122419Y-88571251D01*
X154290778Y-88739610D01*
X154324450Y-88840625D01*
X154324450Y-88907969D01*
X154290778Y-89008984D01*
X154088748Y-89211015D01*
X153987732Y-89244687D01*
X153920389Y-89244687D01*
X156564687Y-86470389D02*
X156564687Y-86537732D01*
X156497343Y-86672419D01*
X156430000Y-86739763D01*
X156295312Y-86807106D01*
X156160625Y-86807106D01*
X156059610Y-86773435D01*
X155891251Y-86672419D01*
X155790236Y-86571404D01*
X155689221Y-86403045D01*
X155655549Y-86302030D01*
X155655549Y-86167343D01*
X155722893Y-86032656D01*
X155790236Y-85965312D01*
X155924923Y-85897969D01*
X155992267Y-85897969D01*
X156632030Y-85729610D02*
X156531015Y-85763282D01*
X156463671Y-85763282D01*
X156362656Y-85729610D01*
X156328984Y-85695938D01*
X156295312Y-85594923D01*
X156295312Y-85527580D01*
X156328984Y-85426564D01*
X156463671Y-85291877D01*
X156564687Y-85258206D01*
X156632030Y-85258206D01*
X156733045Y-85291877D01*
X156766717Y-85325549D01*
X156800389Y-85426564D01*
X156800389Y-85493908D01*
X156766717Y-85594923D01*
X156632030Y-85729610D01*
X156598358Y-85830625D01*
X156598358Y-85897969D01*
X156632030Y-85998984D01*
X156766717Y-86133671D01*
X156867732Y-86167343D01*
X156935076Y-86167343D01*
X157036091Y-86133671D01*
X157170778Y-85998984D01*
X157204450Y-85897969D01*
X157204450Y-85830625D01*
X157170778Y-85729610D01*
X157036091Y-85594923D01*
X156935076Y-85561251D01*
X156867732Y-85561251D01*
X156766717Y-85594923D01*
X141413333Y-72122380D02*
X141080000Y-71646190D01*
X140841904Y-72122380D02*
X140841904Y-71122380D01*
X141222857Y-71122380D01*
X141318095Y-71170000D01*
X141365714Y-71217619D01*
X141413333Y-71312857D01*
X141413333Y-71455714D01*
X141365714Y-71550952D01*
X141318095Y-71598571D01*
X141222857Y-71646190D01*
X140841904Y-71646190D01*
X142270476Y-71122380D02*
X142080000Y-71122380D01*
X141984761Y-71170000D01*
X141937142Y-71217619D01*
X141841904Y-71360476D01*
X141794285Y-71550952D01*
X141794285Y-71931904D01*
X141841904Y-72027142D01*
X141889523Y-72074761D01*
X141984761Y-72122380D01*
X142175238Y-72122380D01*
X142270476Y-72074761D01*
X142318095Y-72027142D01*
X142365714Y-71931904D01*
X142365714Y-71693809D01*
X142318095Y-71598571D01*
X142270476Y-71550952D01*
X142175238Y-71503333D01*
X141984761Y-71503333D01*
X141889523Y-71550952D01*
X141841904Y-71598571D01*
X141794285Y-71693809D01*
X135474687Y-81560389D02*
X135474687Y-81627732D01*
X135407343Y-81762419D01*
X135340000Y-81829763D01*
X135205312Y-81897106D01*
X135070625Y-81897106D01*
X134969610Y-81863435D01*
X134801251Y-81762419D01*
X134700236Y-81661404D01*
X134599221Y-81493045D01*
X134565549Y-81392030D01*
X134565549Y-81257343D01*
X134632893Y-81122656D01*
X134700236Y-81055312D01*
X134834923Y-80987969D01*
X134902267Y-80987969D01*
X135474687Y-80280862D02*
X135137969Y-80617580D01*
X135441015Y-80987969D01*
X135441015Y-80920625D01*
X135474687Y-80819610D01*
X135643045Y-80651251D01*
X135744061Y-80617580D01*
X135811404Y-80617580D01*
X135912419Y-80651251D01*
X136080778Y-80819610D01*
X136114450Y-80920625D01*
X136114450Y-80987969D01*
X136080778Y-81088984D01*
X135912419Y-81257343D01*
X135811404Y-81291015D01*
X135744061Y-81291015D01*
X141342030Y-88847732D02*
X140769610Y-88746717D01*
X140937969Y-89251793D02*
X140230862Y-88544687D01*
X140500236Y-88275312D01*
X140601251Y-88241641D01*
X140668595Y-88241641D01*
X140769610Y-88275312D01*
X140870625Y-88376328D01*
X140904297Y-88477343D01*
X140904297Y-88544687D01*
X140870625Y-88645702D01*
X140601251Y-88915076D01*
X141342030Y-88039610D02*
X141241015Y-88073282D01*
X141173671Y-88073282D01*
X141072656Y-88039610D01*
X141038984Y-88005938D01*
X141005312Y-87904923D01*
X141005312Y-87837580D01*
X141038984Y-87736564D01*
X141173671Y-87601877D01*
X141274687Y-87568206D01*
X141342030Y-87568206D01*
X141443045Y-87601877D01*
X141476717Y-87635549D01*
X141510389Y-87736564D01*
X141510389Y-87803908D01*
X141476717Y-87904923D01*
X141342030Y-88039610D01*
X141308358Y-88140625D01*
X141308358Y-88207969D01*
X141342030Y-88308984D01*
X141476717Y-88443671D01*
X141577732Y-88477343D01*
X141645076Y-88477343D01*
X141746091Y-88443671D01*
X141880778Y-88308984D01*
X141914450Y-88207969D01*
X141914450Y-88140625D01*
X141880778Y-88039610D01*
X141746091Y-87904923D01*
X141645076Y-87871251D01*
X141577732Y-87871251D01*
X141476717Y-87904923D01*
X142027142Y-80657142D02*
X141979523Y-80704761D01*
X141836666Y-80752380D01*
X141741428Y-80752380D01*
X141598571Y-80704761D01*
X141503333Y-80609523D01*
X141455714Y-80514285D01*
X141408095Y-80323809D01*
X141408095Y-80180952D01*
X141455714Y-79990476D01*
X141503333Y-79895238D01*
X141598571Y-79800000D01*
X141741428Y-79752380D01*
X141836666Y-79752380D01*
X141979523Y-79800000D01*
X142027142Y-79847619D01*
X142979523Y-80752380D02*
X142408095Y-80752380D01*
X142693809Y-80752380D02*
X142693809Y-79752380D01*
X142598571Y-79895238D01*
X142503333Y-79990476D01*
X142408095Y-80038095D01*
X143931904Y-80752380D02*
X143360476Y-80752380D01*
X143646190Y-80752380D02*
X143646190Y-79752380D01*
X143550952Y-79895238D01*
X143455714Y-79990476D01*
X143360476Y-80038095D01*
X155352030Y-88007732D02*
X154779610Y-87906717D01*
X154947969Y-88411793D02*
X154240862Y-87704687D01*
X154510236Y-87435312D01*
X154611251Y-87401641D01*
X154678595Y-87401641D01*
X154779610Y-87435312D01*
X154880625Y-87536328D01*
X154914297Y-87637343D01*
X154914297Y-87704687D01*
X154880625Y-87805702D01*
X154611251Y-88075076D01*
X155284687Y-86660862D02*
X154947969Y-86997580D01*
X155251015Y-87367969D01*
X155251015Y-87300625D01*
X155284687Y-87199610D01*
X155453045Y-87031251D01*
X155554061Y-86997580D01*
X155621404Y-86997580D01*
X155722419Y-87031251D01*
X155890778Y-87199610D01*
X155924450Y-87300625D01*
X155924450Y-87367969D01*
X155890778Y-87468984D01*
X155722419Y-87637343D01*
X155621404Y-87671015D01*
X155554061Y-87671015D01*
X152754687Y-97210389D02*
X152754687Y-97277732D01*
X152687343Y-97412419D01*
X152620000Y-97479763D01*
X152485312Y-97547106D01*
X152350625Y-97547106D01*
X152249610Y-97513435D01*
X152081251Y-97412419D01*
X151980236Y-97311404D01*
X151879221Y-97143045D01*
X151845549Y-97042030D01*
X151845549Y-96907343D01*
X151912893Y-96772656D01*
X151980236Y-96705312D01*
X152114923Y-96637969D01*
X152182267Y-96637969D01*
X152451641Y-96368595D02*
X152451641Y-96301251D01*
X152485312Y-96200236D01*
X152653671Y-96031877D01*
X152754687Y-95998206D01*
X152822030Y-95998206D01*
X152923045Y-96031877D01*
X152990389Y-96099221D01*
X153057732Y-96233908D01*
X153057732Y-97042030D01*
X153495465Y-96604297D01*
X155363333Y-78427142D02*
X155315714Y-78474761D01*
X155172857Y-78522380D01*
X155077619Y-78522380D01*
X154934761Y-78474761D01*
X154839523Y-78379523D01*
X154791904Y-78284285D01*
X154744285Y-78093809D01*
X154744285Y-77950952D01*
X154791904Y-77760476D01*
X154839523Y-77665238D01*
X154934761Y-77570000D01*
X155077619Y-77522380D01*
X155172857Y-77522380D01*
X155315714Y-77570000D01*
X155363333Y-77617619D01*
X156220476Y-77855714D02*
X156220476Y-78522380D01*
X155982380Y-77474761D02*
X155744285Y-78189047D01*
X156363333Y-78189047D01*
X142592029Y-90307732D02*
X142019609Y-90206717D01*
X142187968Y-90711793D02*
X141480861Y-90004687D01*
X141750235Y-89735312D01*
X141851250Y-89701641D01*
X141918594Y-89701641D01*
X142019609Y-89735312D01*
X142120624Y-89836328D01*
X142154296Y-89937343D01*
X142154296Y-90004687D01*
X142120624Y-90105702D01*
X141851250Y-90375076D01*
X143265464Y-89634297D02*
X142861403Y-90038358D01*
X143063434Y-89836328D02*
X142356327Y-89129221D01*
X142389999Y-89297580D01*
X142389999Y-89432267D01*
X142356327Y-89533282D01*
X158698095Y-82302380D02*
X158698095Y-83111904D01*
X158745714Y-83207142D01*
X158793333Y-83254761D01*
X158888571Y-83302380D01*
X159079047Y-83302380D01*
X159174285Y-83254761D01*
X159221904Y-83207142D01*
X159269523Y-83111904D01*
X159269523Y-82302380D01*
X160269523Y-83302380D02*
X159698095Y-83302380D01*
X159983809Y-83302380D02*
X159983809Y-82302380D01*
X159888571Y-82445238D01*
X159793333Y-82540476D01*
X159698095Y-82588095D01*
X134271904Y-72072380D02*
X134271904Y-72881904D01*
X134319523Y-72977142D01*
X134367142Y-73024761D01*
X134462380Y-73072380D01*
X134652857Y-73072380D01*
X134748095Y-73024761D01*
X134795714Y-72977142D01*
X134843333Y-72881904D01*
X134843333Y-72072380D01*
X135748095Y-72405714D02*
X135748095Y-73072380D01*
X135510000Y-72024761D02*
X135271904Y-72739047D01*
X135890952Y-72739047D01*
X136700476Y-72405714D02*
X136700476Y-73072380D01*
X136462380Y-72024761D02*
X136224285Y-72739047D01*
X136843333Y-72739047D01*
X152677142Y-78497142D02*
X152629523Y-78544761D01*
X152486666Y-78592380D01*
X152391428Y-78592380D01*
X152248571Y-78544761D01*
X152153333Y-78449523D01*
X152105714Y-78354285D01*
X152058095Y-78163809D01*
X152058095Y-78020952D01*
X152105714Y-77830476D01*
X152153333Y-77735238D01*
X152248571Y-77640000D01*
X152391428Y-77592380D01*
X152486666Y-77592380D01*
X152629523Y-77640000D01*
X152677142Y-77687619D01*
X153629523Y-78592380D02*
X153058095Y-78592380D01*
X153343809Y-78592380D02*
X153343809Y-77592380D01*
X153248571Y-77735238D01*
X153153333Y-77830476D01*
X153058095Y-77878095D01*
X153962857Y-77592380D02*
X154581904Y-77592380D01*
X154248571Y-77973333D01*
X154391428Y-77973333D01*
X154486666Y-78020952D01*
X154534285Y-78068571D01*
X154581904Y-78163809D01*
X154581904Y-78401904D01*
X154534285Y-78497142D01*
X154486666Y-78544761D01*
X154391428Y-78592380D01*
X154105714Y-78592380D01*
X154010476Y-78544761D01*
X153962857Y-78497142D01*
X149283333Y-83267142D02*
X149235714Y-83314761D01*
X149092857Y-83362380D01*
X148997619Y-83362380D01*
X148854761Y-83314761D01*
X148759523Y-83219523D01*
X148711904Y-83124285D01*
X148664285Y-82933809D01*
X148664285Y-82790952D01*
X148711904Y-82600476D01*
X148759523Y-82505238D01*
X148854761Y-82410000D01*
X148997619Y-82362380D01*
X149092857Y-82362380D01*
X149235714Y-82410000D01*
X149283333Y-82457619D01*
X149759523Y-83362380D02*
X149950000Y-83362380D01*
X150045238Y-83314761D01*
X150092857Y-83267142D01*
X150188095Y-83124285D01*
X150235714Y-82933809D01*
X150235714Y-82552857D01*
X150188095Y-82457619D01*
X150140476Y-82410000D01*
X150045238Y-82362380D01*
X149854761Y-82362380D01*
X149759523Y-82410000D01*
X149711904Y-82457619D01*
X149664285Y-82552857D01*
X149664285Y-82790952D01*
X149711904Y-82886190D01*
X149759523Y-82933809D01*
X149854761Y-82981428D01*
X150045238Y-82981428D01*
X150140476Y-82933809D01*
X150188095Y-82886190D01*
X150235714Y-82790952D01*
X156603333Y-74222380D02*
X156270000Y-73746190D01*
X156031904Y-74222380D02*
X156031904Y-73222380D01*
X156412857Y-73222380D01*
X156508095Y-73270000D01*
X156555714Y-73317619D01*
X156603333Y-73412857D01*
X156603333Y-73555714D01*
X156555714Y-73650952D01*
X156508095Y-73698571D01*
X156412857Y-73746190D01*
X156031904Y-73746190D01*
X156936666Y-73222380D02*
X157603333Y-73222380D01*
X157174761Y-74222380D01*
X135713333Y-79622380D02*
X135380000Y-79146190D01*
X135141904Y-79622380D02*
X135141904Y-78622380D01*
X135522857Y-78622380D01*
X135618095Y-78670000D01*
X135665714Y-78717619D01*
X135713333Y-78812857D01*
X135713333Y-78955714D01*
X135665714Y-79050952D01*
X135618095Y-79098571D01*
X135522857Y-79146190D01*
X135141904Y-79146190D01*
X136046666Y-78622380D02*
X136665714Y-78622380D01*
X136332380Y-79003333D01*
X136475238Y-79003333D01*
X136570476Y-79050952D01*
X136618095Y-79098571D01*
X136665714Y-79193809D01*
X136665714Y-79431904D01*
X136618095Y-79527142D01*
X136570476Y-79574761D01*
X136475238Y-79622380D01*
X136189523Y-79622380D01*
X136094285Y-79574761D01*
X136046666Y-79527142D01*
X150877142Y-83837142D02*
X150829523Y-83884761D01*
X150686666Y-83932380D01*
X150591428Y-83932380D01*
X150448571Y-83884761D01*
X150353333Y-83789523D01*
X150305714Y-83694285D01*
X150258095Y-83503809D01*
X150258095Y-83360952D01*
X150305714Y-83170476D01*
X150353333Y-83075238D01*
X150448571Y-82980000D01*
X150591428Y-82932380D01*
X150686666Y-82932380D01*
X150829523Y-82980000D01*
X150877142Y-83027619D01*
X151829523Y-83932380D02*
X151258095Y-83932380D01*
X151543809Y-83932380D02*
X151543809Y-82932380D01*
X151448571Y-83075238D01*
X151353333Y-83170476D01*
X151258095Y-83218095D01*
X152210476Y-83027619D02*
X152258095Y-82980000D01*
X152353333Y-82932380D01*
X152591428Y-82932380D01*
X152686666Y-82980000D01*
X152734285Y-83027619D01*
X152781904Y-83122857D01*
X152781904Y-83218095D01*
X152734285Y-83360952D01*
X152162857Y-83932380D01*
X152781904Y-83932380D01*
X134244026Y-84541522D02*
X134816446Y-85113942D01*
X134917461Y-85147614D01*
X134984805Y-85147614D01*
X135085820Y-85113942D01*
X135220507Y-84979255D01*
X135254179Y-84878240D01*
X135254179Y-84810896D01*
X135220507Y-84709881D01*
X134648087Y-84137461D01*
X135018477Y-83901759D02*
X135018477Y-83834416D01*
X135052148Y-83733400D01*
X135220507Y-83565042D01*
X135321522Y-83531370D01*
X135388866Y-83531370D01*
X135489881Y-83565042D01*
X135557225Y-83632385D01*
X135624568Y-83767072D01*
X135624568Y-84575194D01*
X136062301Y-84137461D01*
X139383333Y-80892380D02*
X139050000Y-80416190D01*
X138811904Y-80892380D02*
X138811904Y-79892380D01*
X139192857Y-79892380D01*
X139288095Y-79940000D01*
X139335714Y-79987619D01*
X139383333Y-80082857D01*
X139383333Y-80225714D01*
X139335714Y-80320952D01*
X139288095Y-80368571D01*
X139192857Y-80416190D01*
X138811904Y-80416190D01*
X140240476Y-80225714D02*
X140240476Y-80892380D01*
X140002380Y-79844761D02*
X139764285Y-80559047D01*
X140383333Y-80559047D01*
X154136666Y-72248571D02*
X153803333Y-72248571D01*
X153803333Y-72772380D02*
X153803333Y-71772380D01*
X154279523Y-71772380D01*
X154850952Y-71772380D02*
X154946190Y-71772380D01*
X155041428Y-71820000D01*
X155089047Y-71867619D01*
X155136666Y-71962857D01*
X155184285Y-72153333D01*
X155184285Y-72391428D01*
X155136666Y-72581904D01*
X155089047Y-72677142D01*
X155041428Y-72724761D01*
X154946190Y-72772380D01*
X154850952Y-72772380D01*
X154755714Y-72724761D01*
X154708095Y-72677142D01*
X154660476Y-72581904D01*
X154612857Y-72391428D01*
X154612857Y-72153333D01*
X154660476Y-71962857D01*
X154708095Y-71867619D01*
X154755714Y-71820000D01*
X154850952Y-71772380D01*
X42000000Y-137500000D02*
X42000000Y-136500000D01*
X43000000Y-123500000D02*
X42000000Y-123500000D01*
X56000000Y-136500000D02*
X56000000Y-137500000D01*
X42000000Y-137500000D02*
X43000000Y-137500000D01*
X42000000Y-124500000D02*
X42000000Y-123500000D01*
X56000000Y-123500000D02*
X55000000Y-123500000D01*
X55000000Y-137500000D02*
X56000000Y-137500000D01*
X56000000Y-123500000D02*
X56000000Y-124500000D01*
X132000000Y-137500000D02*
X132000000Y-136500000D01*
X146000000Y-123500000D02*
X145000000Y-123500000D01*
X133000000Y-123500000D02*
X132000000Y-123500000D01*
X132000000Y-124500000D02*
X132000000Y-123500000D01*
X132000000Y-137500000D02*
X133000000Y-137500000D01*
X145000000Y-137500000D02*
X146000000Y-137500000D01*
X146000000Y-123500000D02*
X146000000Y-124500000D01*
X146000000Y-136500000D02*
X146000000Y-137500000D01*
D11*
X158375000Y-80691252D02*
X158375000Y-80168748D01*
X156905000Y-80691252D02*
X156905000Y-80168748D01*
X130820000Y-76510000D02*
X128660000Y-76510000D01*
X130820000Y-79670000D02*
X130820000Y-78740000D01*
X130820000Y-79670000D02*
X129360000Y-79670000D01*
X130820000Y-76510000D02*
X130820000Y-77440000D01*
D10*
X217000000Y-103500000D02*
X218000000Y-103500000D01*
X218000000Y-89500000D02*
X217000000Y-89500000D01*
X204000000Y-90500000D02*
X204000000Y-89500000D01*
X218000000Y-102500000D02*
X218000000Y-103500000D01*
X218000000Y-89500000D02*
X218000000Y-90500000D01*
X205000000Y-89500000D02*
X204000000Y-89500000D01*
X204000000Y-103500000D02*
X205000000Y-103500000D01*
X204000000Y-103500000D02*
X204000000Y-102500000D01*
D11*
X162475000Y-80691252D02*
X162475000Y-80168748D01*
X163945000Y-80691252D02*
X163945000Y-80168748D01*
X139577798Y-95261832D02*
X138980006Y-94549410D01*
X137546589Y-92841131D02*
X138144382Y-93553553D01*
X139577798Y-95261832D02*
X138459373Y-96200302D01*
X137546589Y-92841131D02*
X135891933Y-94229552D01*
X164697182Y-98635976D02*
X164858675Y-99551848D01*
X164697182Y-98635976D02*
X166135001Y-98382450D01*
X165245910Y-101747969D02*
X167373095Y-101372889D01*
X165245910Y-101747969D02*
X165084417Y-100832098D01*
D10*
X114000000Y-137500000D02*
X114000000Y-136500000D01*
X128000000Y-123500000D02*
X127000000Y-123500000D01*
X114000000Y-124500000D02*
X114000000Y-123500000D01*
X128000000Y-136500000D02*
X128000000Y-137500000D01*
X127000000Y-137500000D02*
X128000000Y-137500000D01*
X128000000Y-123500000D02*
X128000000Y-124500000D01*
X115000000Y-123500000D02*
X114000000Y-123500000D01*
X114000000Y-137500000D02*
X115000000Y-137500000D01*
X145000000Y-120500000D02*
X146000000Y-120500000D01*
X132000000Y-120500000D02*
X133000000Y-120500000D01*
X132000000Y-120500000D02*
X132000000Y-119500000D01*
X146000000Y-106500000D02*
X146000000Y-107500000D01*
X146000000Y-106500000D02*
X145000000Y-106500000D01*
X133000000Y-106500000D02*
X132000000Y-106500000D01*
X146000000Y-119500000D02*
X146000000Y-120500000D01*
X132000000Y-107500000D02*
X132000000Y-106500000D01*
D11*
X146745000Y-80691252D02*
X146745000Y-80168748D01*
X148215000Y-80691252D02*
X148215000Y-80168748D01*
X131297818Y-98650976D02*
X131136325Y-99566848D01*
X130749090Y-101762969D02*
X130910583Y-100847098D01*
X131297818Y-98650976D02*
X129170633Y-98275896D01*
X130749090Y-101762969D02*
X129311270Y-101509443D01*
X160014990Y-85715543D02*
X160384457Y-86085010D01*
X158975543Y-86754990D02*
X159345010Y-87124457D01*
X131311057Y-83986844D02*
X129353432Y-84899699D01*
X131311057Y-83986844D02*
X131704092Y-84829710D01*
X132646531Y-86850776D02*
X132253496Y-86007910D01*
X132646531Y-86850776D02*
X131323321Y-87467799D01*
X155684990Y-90045543D02*
X156054457Y-90415010D01*
X154645543Y-91084990D02*
X155015010Y-91454457D01*
D10*
X182000000Y-119500000D02*
X182000000Y-120500000D01*
X169000000Y-106500000D02*
X168000000Y-106500000D01*
X181000000Y-120500000D02*
X182000000Y-120500000D01*
X168000000Y-120500000D02*
X168000000Y-119500000D01*
X182000000Y-106500000D02*
X182000000Y-107500000D01*
X168000000Y-120500000D02*
X169000000Y-120500000D01*
X182000000Y-106500000D02*
X181000000Y-106500000D01*
X168000000Y-107500000D02*
X168000000Y-106500000D01*
D11*
X164556225Y-98094650D02*
X164238147Y-97220736D01*
X163475442Y-95125221D02*
X163793521Y-95999135D01*
X163475442Y-95125221D02*
X164847393Y-94625872D01*
X164556225Y-98094650D02*
X166585961Y-97355886D01*
X140897798Y-100528168D02*
X140300006Y-101240590D01*
X138866589Y-102948869D02*
X137748164Y-102010399D01*
X140897798Y-100528168D02*
X139243142Y-99139747D01*
X138866589Y-102948869D02*
X139464382Y-102236447D01*
X143479630Y-97920172D02*
X142822021Y-98577782D01*
X143479630Y-97920172D02*
X141952279Y-96392822D01*
X141245172Y-100154630D02*
X140212797Y-99122254D01*
X141245172Y-100154630D02*
X141902782Y-99497021D01*
X166735000Y-126805000D02*
X165275000Y-126805000D01*
X166735000Y-126805000D02*
X166735000Y-125875000D01*
X166735000Y-123645000D02*
X164575000Y-123645000D01*
X166735000Y-123645000D02*
X166735000Y-124575000D01*
X131434082Y-98112630D02*
X131752160Y-97238716D01*
X132514865Y-95143201D02*
X132196786Y-96017115D01*
X132514865Y-95143201D02*
X130485129Y-94404437D01*
X131434082Y-98112630D02*
X130062130Y-97613280D01*
D10*
X73000000Y-103500000D02*
X74000000Y-103500000D01*
X74000000Y-89500000D02*
X73000000Y-89500000D01*
X74000000Y-102500000D02*
X74000000Y-103500000D01*
X60000000Y-90500000D02*
X60000000Y-89500000D01*
X60000000Y-103500000D02*
X61000000Y-103500000D01*
X74000000Y-89500000D02*
X74000000Y-90500000D01*
X61000000Y-89500000D02*
X60000000Y-89500000D01*
X60000000Y-103500000D02*
X60000000Y-102500000D01*
D11*
X135276589Y-90111131D02*
X135874382Y-90823553D01*
X137307798Y-92531832D02*
X136710006Y-91819410D01*
X135276589Y-90111131D02*
X133621933Y-91499552D01*
X137307798Y-92531832D02*
X136189373Y-93470302D01*
D10*
X60000000Y-120500000D02*
X61000000Y-120500000D01*
X74000000Y-106500000D02*
X73000000Y-106500000D01*
X60000000Y-120500000D02*
X60000000Y-119500000D01*
X73000000Y-120500000D02*
X74000000Y-120500000D01*
X74000000Y-119500000D02*
X74000000Y-120500000D01*
X74000000Y-106500000D02*
X74000000Y-107500000D01*
X60000000Y-107500000D02*
X60000000Y-106500000D01*
X61000000Y-106500000D02*
X60000000Y-106500000D01*
X205000000Y-106500000D02*
X204000000Y-106500000D01*
X204000000Y-120500000D02*
X205000000Y-120500000D01*
X218000000Y-106500000D02*
X218000000Y-107500000D01*
X204000000Y-120500000D02*
X204000000Y-119500000D01*
X218000000Y-106500000D02*
X217000000Y-106500000D01*
X204000000Y-107500000D02*
X204000000Y-106500000D01*
X217000000Y-120500000D02*
X218000000Y-120500000D01*
X218000000Y-119500000D02*
X218000000Y-120500000D01*
X128000000Y-85500000D02*
X128000000Y-86500000D01*
X115000000Y-72500000D02*
X114000000Y-72500000D01*
X114000000Y-86500000D02*
X115000000Y-86500000D01*
X114000000Y-86500000D02*
X114000000Y-85500000D01*
X114000000Y-73500000D02*
X114000000Y-72500000D01*
X128000000Y-72500000D02*
X127000000Y-72500000D01*
X128000000Y-72500000D02*
X128000000Y-73500000D01*
X127000000Y-86500000D02*
X128000000Y-86500000D01*
X181000000Y-103500000D02*
X182000000Y-103500000D01*
X182000000Y-89500000D02*
X182000000Y-90500000D01*
X168000000Y-103500000D02*
X169000000Y-103500000D01*
X182000000Y-89500000D02*
X181000000Y-89500000D01*
X168000000Y-90500000D02*
X168000000Y-89500000D01*
X168000000Y-103500000D02*
X168000000Y-102500000D01*
X169000000Y-89500000D02*
X168000000Y-89500000D01*
X182000000Y-102500000D02*
X182000000Y-103500000D01*
D11*
X158574990Y-87145543D02*
X158944457Y-87515010D01*
X157535543Y-88184990D02*
X157905010Y-88554457D01*
X142345000Y-73977064D02*
X142345000Y-73522936D01*
X140875000Y-73977064D02*
X140875000Y-73522936D01*
D10*
X128000000Y-89500000D02*
X128000000Y-90500000D01*
X114000000Y-90500000D02*
X114000000Y-89500000D01*
X114000000Y-103500000D02*
X114000000Y-102500000D01*
X128000000Y-89500000D02*
X127000000Y-89500000D01*
X115000000Y-89500000D02*
X114000000Y-89500000D01*
X114000000Y-103500000D02*
X115000000Y-103500000D01*
X128000000Y-102500000D02*
X128000000Y-103500000D01*
X127000000Y-103500000D02*
X128000000Y-103500000D01*
X154990000Y-123500000D02*
X153990000Y-123500000D01*
X141990000Y-123500000D02*
X140990000Y-123500000D01*
X153990000Y-137500000D02*
X154990000Y-137500000D01*
X154990000Y-136500000D02*
X154990000Y-137500000D01*
X140990000Y-137500000D02*
X140990000Y-136500000D01*
X140990000Y-124500000D02*
X140990000Y-123500000D01*
X154990000Y-123500000D02*
X154990000Y-124500000D01*
X140990000Y-137500000D02*
X141990000Y-137500000D01*
D11*
X165220000Y-74080000D02*
X165220000Y-71420000D01*
X157480000Y-71420000D02*
X158810000Y-71420000D01*
X160080000Y-74080000D02*
X160080000Y-71420000D01*
X157480000Y-72750000D02*
X157480000Y-71420000D01*
X160080000Y-71420000D02*
X165220000Y-71420000D01*
X160080000Y-74080000D02*
X165220000Y-74080000D01*
X155177202Y-100403168D02*
X156295627Y-99464698D01*
X155177202Y-100403168D02*
X155774994Y-101115590D01*
X157208411Y-102823869D02*
X158863067Y-101435448D01*
X157208411Y-102823869D02*
X156610618Y-102111447D01*
D10*
X55000000Y-86500000D02*
X56000000Y-86500000D01*
X42000000Y-86500000D02*
X42000000Y-85500000D01*
X56000000Y-72500000D02*
X55000000Y-72500000D01*
X42000000Y-73500000D02*
X42000000Y-72500000D01*
X43000000Y-72500000D02*
X42000000Y-72500000D01*
X56000000Y-72500000D02*
X56000000Y-73500000D01*
X56000000Y-85500000D02*
X56000000Y-86500000D01*
X42000000Y-86500000D02*
X43000000Y-86500000D01*
X271000000Y-137500000D02*
X272000000Y-137500000D01*
X258000000Y-124500000D02*
X258000000Y-123500000D01*
X259000000Y-123500000D02*
X258000000Y-123500000D01*
X272000000Y-123500000D02*
X271000000Y-123500000D01*
X258000000Y-137500000D02*
X258000000Y-136500000D01*
X258000000Y-137500000D02*
X259000000Y-137500000D01*
X272000000Y-123500000D02*
X272000000Y-124500000D01*
X272000000Y-136500000D02*
X272000000Y-137500000D01*
D11*
X135017798Y-89811832D02*
X134420006Y-89099410D01*
X135017798Y-89811832D02*
X133899373Y-90750302D01*
X132986589Y-87391131D02*
X133584382Y-88103553D01*
X132986589Y-87391131D02*
X131331933Y-88779552D01*
D10*
X240000000Y-137500000D02*
X240000000Y-136500000D01*
X253000000Y-137500000D02*
X254000000Y-137500000D01*
X254000000Y-123500000D02*
X253000000Y-123500000D01*
X240000000Y-137500000D02*
X241000000Y-137500000D01*
X254000000Y-136500000D02*
X254000000Y-137500000D01*
X240000000Y-124500000D02*
X240000000Y-123500000D01*
X241000000Y-123500000D02*
X240000000Y-123500000D01*
X254000000Y-123500000D02*
X254000000Y-124500000D01*
D11*
X150650000Y-102047500D02*
X150650000Y-98657500D01*
X151580000Y-100377500D02*
X151580000Y-99277500D01*
X148850000Y-98517500D02*
X149280000Y-98517500D01*
X148980000Y-101537500D02*
X149910000Y-101537500D01*
X151580000Y-101507500D02*
X150650000Y-101507500D01*
X148980000Y-101537500D02*
X148980000Y-99207500D01*
X151580000Y-100377500D02*
X151580000Y-101507500D01*
X149920000Y-102047500D02*
X150650000Y-102047500D01*
X151720000Y-102182500D02*
X151290000Y-102182500D01*
X151720000Y-102182500D02*
X151720000Y-101752500D01*
X151580000Y-99277500D02*
X150650000Y-99277500D01*
X149910000Y-98657500D02*
X149910000Y-102047500D01*
X150650000Y-98657500D02*
X149910000Y-98657500D01*
X148980000Y-99207500D02*
X149910000Y-99207500D01*
X148850000Y-98517500D02*
X148850000Y-98947500D01*
D10*
X118010000Y-137500000D02*
X119010000Y-137500000D01*
X105010000Y-137500000D02*
X106010000Y-137500000D01*
X106010000Y-123500000D02*
X105010000Y-123500000D01*
X105010000Y-124500000D02*
X105010000Y-123500000D01*
X119010000Y-136500000D02*
X119010000Y-137500000D01*
X105010000Y-137500000D02*
X105010000Y-136500000D01*
X119010000Y-123500000D02*
X119010000Y-124500000D01*
X119010000Y-123500000D02*
X118010000Y-123500000D01*
X241000000Y-106500000D02*
X240000000Y-106500000D01*
X240000000Y-120500000D02*
X240000000Y-119500000D01*
X254000000Y-106500000D02*
X253000000Y-106500000D01*
X254000000Y-106500000D02*
X254000000Y-107500000D01*
X240000000Y-107500000D02*
X240000000Y-106500000D01*
X253000000Y-120500000D02*
X254000000Y-120500000D01*
X240000000Y-120500000D02*
X241000000Y-120500000D01*
X254000000Y-119500000D02*
X254000000Y-120500000D01*
D11*
X165290000Y-102310000D02*
X165290000Y-103240000D01*
X165290000Y-102310000D02*
X166750000Y-102310000D01*
X165290000Y-105470000D02*
X167450000Y-105470000D01*
X165290000Y-105470000D02*
X165290000Y-104540000D01*
X129240000Y-126805000D02*
X131400000Y-126805000D01*
X129240000Y-126805000D02*
X129240000Y-125875000D01*
X129240000Y-123645000D02*
X129240000Y-124575000D01*
X129240000Y-123645000D02*
X130700000Y-123645000D01*
D10*
X92000000Y-123500000D02*
X92000000Y-124500000D01*
X78000000Y-137500000D02*
X78000000Y-136500000D01*
X78000000Y-137500000D02*
X79000000Y-137500000D01*
X91000000Y-137500000D02*
X92000000Y-137500000D01*
X78000000Y-124500000D02*
X78000000Y-123500000D01*
X79000000Y-123500000D02*
X78000000Y-123500000D01*
X92000000Y-136500000D02*
X92000000Y-137500000D01*
X92000000Y-123500000D02*
X91000000Y-123500000D01*
D11*
X136855010Y-80995543D02*
X136485543Y-81365010D01*
X137894457Y-82034990D02*
X137524990Y-82404457D01*
D10*
X182000000Y-123500000D02*
X182000000Y-124500000D01*
X168000000Y-124500000D02*
X168000000Y-123500000D01*
X169000000Y-123500000D02*
X168000000Y-123500000D01*
X182000000Y-136500000D02*
X182000000Y-137500000D01*
X168000000Y-137500000D02*
X169000000Y-137500000D01*
X181000000Y-137500000D02*
X182000000Y-137500000D01*
X182000000Y-123500000D02*
X181000000Y-123500000D01*
X168000000Y-137500000D02*
X168000000Y-136500000D01*
D11*
X140169718Y-91610835D02*
X140490835Y-91289718D01*
X141209165Y-92650282D02*
X141530282Y-92329165D01*
X161284038Y-83821160D02*
X160880987Y-83418109D01*
X160792599Y-85387401D02*
X159852147Y-84446949D01*
X159852147Y-84446949D02*
X160389548Y-83909548D01*
X162677038Y-85383866D02*
X162761891Y-85299013D01*
X162761891Y-85299013D02*
X162358840Y-84895962D01*
X160796134Y-83502962D02*
X160880987Y-83418109D01*
X144210000Y-121000000D02*
X143910000Y-121300000D01*
X146710000Y-107400000D02*
X149310000Y-107400000D01*
X143910000Y-121300000D02*
X143910000Y-120700000D01*
X142110000Y-115500000D02*
X142110000Y-119600000D01*
X142110000Y-111500000D02*
X142110000Y-107400000D01*
X151510000Y-107400000D02*
X153910000Y-107400000D01*
X153910000Y-115500000D02*
X153910000Y-119600000D01*
X153910000Y-107400000D02*
X153910000Y-111500000D01*
X143910000Y-120700000D02*
X144210000Y-121000000D01*
X147510000Y-113500000D02*
X148510000Y-113500000D01*
X148010000Y-114000000D02*
X148010000Y-113000000D01*
X142110000Y-107400000D02*
X144510000Y-107400000D01*
X142110000Y-119600000D02*
X153910000Y-119600000D01*
X151010000Y-113500000D02*
G75*
G03*
X151010000Y-113500000I-3000000J0D01*
G01*
D10*
X24000000Y-73500000D02*
X24000000Y-72500000D01*
X38000000Y-72500000D02*
X38000000Y-73500000D01*
X37000000Y-86500000D02*
X38000000Y-86500000D01*
X38000000Y-72500000D02*
X37000000Y-72500000D01*
X25000000Y-72500000D02*
X24000000Y-72500000D01*
X24000000Y-86500000D02*
X24000000Y-85500000D01*
X38000000Y-85500000D02*
X38000000Y-86500000D01*
X24000000Y-86500000D02*
X25000000Y-86500000D01*
X182000000Y-72500000D02*
X181000000Y-72500000D01*
X181000000Y-86500000D02*
X182000000Y-86500000D01*
X182000000Y-85500000D02*
X182000000Y-86500000D01*
X168000000Y-73500000D02*
X168000000Y-72500000D01*
X169000000Y-72500000D02*
X168000000Y-72500000D01*
X168000000Y-86500000D02*
X168000000Y-85500000D01*
X168000000Y-86500000D02*
X169000000Y-86500000D01*
X182000000Y-72500000D02*
X182000000Y-73500000D01*
D11*
X164808943Y-83986844D02*
X166132152Y-84603866D01*
X164808943Y-83986844D02*
X164415908Y-84829710D01*
X163473469Y-86850776D02*
X165431094Y-87763632D01*
X163473469Y-86850776D02*
X163866504Y-86007910D01*
D10*
X223000000Y-72500000D02*
X222000000Y-72500000D01*
X235000000Y-86500000D02*
X236000000Y-86500000D01*
X222000000Y-73500000D02*
X222000000Y-72500000D01*
X236000000Y-72500000D02*
X236000000Y-73500000D01*
X236000000Y-72500000D02*
X235000000Y-72500000D01*
X236000000Y-85500000D02*
X236000000Y-86500000D01*
X222000000Y-86500000D02*
X222000000Y-85500000D01*
X222000000Y-86500000D02*
X223000000Y-86500000D01*
D11*
X141045000Y-78291252D02*
X141045000Y-77768748D01*
X142515000Y-78291252D02*
X142515000Y-77768748D01*
X156541025Y-104591442D02*
X156541025Y-103091442D01*
X151788975Y-103103558D02*
X151788975Y-104603558D01*
X156541025Y-104603436D02*
X151788975Y-104603558D01*
G36*
X156541025Y-104603436D02*
G01*
X155956025Y-104603436D01*
X156541025Y-103983436D01*
X156541025Y-104603436D01*
G37*
X156541025Y-104603436D02*
X155956025Y-104603436D01*
X156541025Y-103983436D01*
X156541025Y-104603436D01*
X152595370Y-97790172D02*
X153252979Y-98447782D01*
X154829828Y-100024630D02*
X154172218Y-99367021D01*
X154829828Y-100024630D02*
X156357178Y-98497279D01*
X152595370Y-97790172D02*
X153627746Y-96757797D01*
X136968179Y-106148320D02*
X135703782Y-105418320D01*
X138548179Y-103411680D02*
X138083179Y-104217083D01*
X138548179Y-103411680D02*
X136677564Y-102331680D01*
X136968179Y-106148320D02*
X137433179Y-105342917D01*
X165300000Y-76510000D02*
X166760000Y-76510000D01*
X165300000Y-76510000D02*
X165300000Y-77440000D01*
X165300000Y-79670000D02*
X167460000Y-79670000D01*
X165300000Y-79670000D02*
X165300000Y-78740000D01*
X143354308Y-87550381D02*
X142894689Y-88010000D01*
X147540381Y-83364308D02*
X148000000Y-82904689D01*
X148000000Y-93115311D02*
X147540381Y-92655692D01*
X148000000Y-82904689D02*
X148459619Y-83364308D01*
X153105311Y-88010000D02*
X152645692Y-87550381D01*
X148459619Y-92655692D02*
X148000000Y-93115311D01*
X152645692Y-88469619D02*
X153105311Y-88010000D01*
X156079718Y-89669165D02*
X156400835Y-89990282D01*
X157119165Y-88629718D02*
X157440282Y-88950835D01*
D10*
X24000000Y-124500000D02*
X24000000Y-123500000D01*
X24000000Y-137500000D02*
X25000000Y-137500000D01*
X38000000Y-123500000D02*
X37000000Y-123500000D01*
X24000000Y-137500000D02*
X24000000Y-136500000D01*
X38000000Y-123500000D02*
X38000000Y-124500000D01*
X25000000Y-123500000D02*
X24000000Y-123500000D01*
X38000000Y-136500000D02*
X38000000Y-137500000D01*
X37000000Y-137500000D02*
X38000000Y-137500000D01*
X187000000Y-72500000D02*
X186000000Y-72500000D01*
X186000000Y-86500000D02*
X186000000Y-85500000D01*
X199000000Y-86500000D02*
X200000000Y-86500000D01*
X200000000Y-72500000D02*
X200000000Y-73500000D01*
X186000000Y-73500000D02*
X186000000Y-72500000D01*
X186000000Y-86500000D02*
X187000000Y-86500000D01*
X200000000Y-72500000D02*
X199000000Y-72500000D01*
X200000000Y-85500000D02*
X200000000Y-86500000D01*
X114000000Y-120500000D02*
X115000000Y-120500000D01*
X114000000Y-120500000D02*
X114000000Y-119500000D01*
X128000000Y-106500000D02*
X127000000Y-106500000D01*
X127000000Y-120500000D02*
X128000000Y-120500000D01*
X114000000Y-107500000D02*
X114000000Y-106500000D01*
X128000000Y-119500000D02*
X128000000Y-120500000D01*
X115000000Y-106500000D02*
X114000000Y-106500000D01*
X128000000Y-106500000D02*
X128000000Y-107500000D01*
D11*
X151584457Y-94895010D02*
X151214990Y-94525543D01*
X150545010Y-95934457D02*
X150175543Y-95564990D01*
D10*
X55000000Y-103500000D02*
X56000000Y-103500000D01*
X42000000Y-103500000D02*
X43000000Y-103500000D01*
X56000000Y-89500000D02*
X55000000Y-89500000D01*
X56000000Y-102500000D02*
X56000000Y-103500000D01*
X42000000Y-103500000D02*
X42000000Y-102500000D01*
X43000000Y-89500000D02*
X42000000Y-89500000D01*
X42000000Y-90500000D02*
X42000000Y-89500000D01*
X56000000Y-89500000D02*
X56000000Y-90500000D01*
X199000000Y-120500000D02*
X200000000Y-120500000D01*
X186000000Y-120500000D02*
X186000000Y-119500000D01*
X186000000Y-107500000D02*
X186000000Y-106500000D01*
X200000000Y-106500000D02*
X199000000Y-106500000D01*
X186000000Y-120500000D02*
X187000000Y-120500000D01*
X200000000Y-106500000D02*
X200000000Y-107500000D01*
X187000000Y-106500000D02*
X186000000Y-106500000D01*
X200000000Y-119500000D02*
X200000000Y-120500000D01*
D11*
X154885000Y-80691252D02*
X154885000Y-80168748D01*
X156355000Y-80691252D02*
X156355000Y-80168748D01*
D10*
X61000000Y-72500000D02*
X60000000Y-72500000D01*
X60000000Y-86500000D02*
X61000000Y-86500000D01*
X60000000Y-86500000D02*
X60000000Y-85500000D01*
X74000000Y-85500000D02*
X74000000Y-86500000D01*
X60000000Y-73500000D02*
X60000000Y-72500000D01*
X73000000Y-86500000D02*
X74000000Y-86500000D01*
X74000000Y-72500000D02*
X74000000Y-73500000D01*
X74000000Y-72500000D02*
X73000000Y-72500000D01*
X199000000Y-103500000D02*
X200000000Y-103500000D01*
X187000000Y-89500000D02*
X186000000Y-89500000D01*
X186000000Y-103500000D02*
X187000000Y-103500000D01*
X200000000Y-89500000D02*
X200000000Y-90500000D01*
X200000000Y-89500000D02*
X199000000Y-89500000D01*
X186000000Y-90500000D02*
X186000000Y-89500000D01*
X200000000Y-102500000D02*
X200000000Y-103500000D01*
X186000000Y-103500000D02*
X186000000Y-102500000D01*
X110000000Y-89500000D02*
X110000000Y-90500000D01*
X110000000Y-102500000D02*
X110000000Y-103500000D01*
X97000000Y-89500000D02*
X96000000Y-89500000D01*
X96000000Y-90500000D02*
X96000000Y-89500000D01*
X96000000Y-103500000D02*
X97000000Y-103500000D01*
X96000000Y-103500000D02*
X96000000Y-102500000D01*
X110000000Y-89500000D02*
X109000000Y-89500000D01*
X109000000Y-103500000D02*
X110000000Y-103500000D01*
X204000000Y-86500000D02*
X204000000Y-85500000D01*
X218000000Y-72500000D02*
X218000000Y-73500000D01*
X218000000Y-85500000D02*
X218000000Y-86500000D01*
X205000000Y-72500000D02*
X204000000Y-72500000D01*
X218000000Y-72500000D02*
X217000000Y-72500000D01*
X204000000Y-73500000D02*
X204000000Y-72500000D01*
X217000000Y-86500000D02*
X218000000Y-86500000D01*
X204000000Y-86500000D02*
X205000000Y-86500000D01*
X96000000Y-124500000D02*
X96000000Y-123500000D01*
X110000000Y-136500000D02*
X110000000Y-137500000D01*
X110000000Y-123500000D02*
X109000000Y-123500000D01*
X96000000Y-137500000D02*
X97000000Y-137500000D01*
X110000000Y-123500000D02*
X110000000Y-124500000D01*
X96000000Y-137500000D02*
X96000000Y-136500000D01*
X97000000Y-123500000D02*
X96000000Y-123500000D01*
X109000000Y-137500000D02*
X110000000Y-137500000D01*
X189990000Y-137500000D02*
X190990000Y-137500000D01*
X176990000Y-124500000D02*
X176990000Y-123500000D01*
X176990000Y-137500000D02*
X176990000Y-136500000D01*
X176990000Y-137500000D02*
X177990000Y-137500000D01*
X190990000Y-136500000D02*
X190990000Y-137500000D01*
X177990000Y-123500000D02*
X176990000Y-123500000D01*
X190990000Y-123500000D02*
X190990000Y-124500000D01*
X190990000Y-123500000D02*
X189990000Y-123500000D01*
D11*
X160833411Y-90101131D02*
X160235618Y-90813553D01*
X158802202Y-92521832D02*
X159399994Y-91809410D01*
X160833411Y-90101131D02*
X161951836Y-91039601D01*
X158802202Y-92521832D02*
X160456858Y-93910253D01*
X158536718Y-92816086D02*
X157938925Y-93528508D01*
X156505509Y-95236787D02*
X158160165Y-96625208D01*
X158536718Y-92816086D02*
X159655143Y-93754556D01*
X156505509Y-95236787D02*
X157103301Y-94524365D01*
D10*
X240000000Y-103500000D02*
X240000000Y-102500000D01*
X254000000Y-89500000D02*
X253000000Y-89500000D01*
X240000000Y-103500000D02*
X241000000Y-103500000D01*
X240000000Y-90500000D02*
X240000000Y-89500000D01*
X254000000Y-102500000D02*
X254000000Y-103500000D01*
X253000000Y-103500000D02*
X254000000Y-103500000D01*
X241000000Y-89500000D02*
X240000000Y-89500000D01*
X254000000Y-89500000D02*
X254000000Y-90500000D01*
D11*
X139090835Y-89859718D02*
X138769718Y-90180835D01*
X140130282Y-90899165D02*
X139809165Y-91220282D01*
X162010000Y-81190000D02*
X161080000Y-81190000D01*
X158850000Y-81190000D02*
X158850000Y-79730000D01*
X158850000Y-81190000D02*
X159780000Y-81190000D01*
X162010000Y-81190000D02*
X162010000Y-79030000D01*
X137120000Y-74120000D02*
X137120000Y-73320000D01*
X140240000Y-74120000D02*
X140240000Y-74920000D01*
X140240000Y-74120000D02*
X140240000Y-73320000D01*
X137120000Y-74120000D02*
X137120000Y-75920000D01*
D10*
X96000000Y-107500000D02*
X96000000Y-106500000D01*
X110000000Y-119500000D02*
X110000000Y-120500000D01*
X96000000Y-120500000D02*
X97000000Y-120500000D01*
X110000000Y-106500000D02*
X109000000Y-106500000D01*
X110000000Y-106500000D02*
X110000000Y-107500000D01*
X97000000Y-106500000D02*
X96000000Y-106500000D01*
X96000000Y-120500000D02*
X96000000Y-119500000D01*
X109000000Y-120500000D02*
X110000000Y-120500000D01*
D11*
X154265000Y-80691252D02*
X154265000Y-80168748D01*
X152795000Y-80691252D02*
X152795000Y-80168748D01*
D10*
X258000000Y-103500000D02*
X259000000Y-103500000D01*
X272000000Y-89500000D02*
X271000000Y-89500000D01*
X271000000Y-103500000D02*
X272000000Y-103500000D01*
X272000000Y-102500000D02*
X272000000Y-103500000D01*
X258000000Y-103500000D02*
X258000000Y-102500000D01*
X272000000Y-89500000D02*
X272000000Y-90500000D01*
X259000000Y-89500000D02*
X258000000Y-89500000D01*
X258000000Y-90500000D02*
X258000000Y-89500000D01*
X222000000Y-103500000D02*
X223000000Y-103500000D01*
X236000000Y-102500000D02*
X236000000Y-103500000D01*
X235000000Y-103500000D02*
X236000000Y-103500000D01*
X222000000Y-103500000D02*
X222000000Y-102500000D01*
X236000000Y-89500000D02*
X235000000Y-89500000D01*
X223000000Y-89500000D02*
X222000000Y-89500000D01*
X236000000Y-89500000D02*
X236000000Y-90500000D01*
X222000000Y-90500000D02*
X222000000Y-89500000D01*
X38000000Y-102500000D02*
X38000000Y-103500000D01*
X37000000Y-103500000D02*
X38000000Y-103500000D01*
X24000000Y-103500000D02*
X25000000Y-103500000D01*
X38000000Y-89500000D02*
X38000000Y-90500000D01*
X38000000Y-89500000D02*
X37000000Y-89500000D01*
X25000000Y-89500000D02*
X24000000Y-89500000D01*
X24000000Y-90500000D02*
X24000000Y-89500000D01*
X24000000Y-103500000D02*
X24000000Y-102500000D01*
D11*
X148765000Y-80691252D02*
X148765000Y-80168748D01*
X150235000Y-80691252D02*
X150235000Y-80168748D01*
D10*
X25000000Y-106500000D02*
X24000000Y-106500000D01*
X38000000Y-119500000D02*
X38000000Y-120500000D01*
X24000000Y-120500000D02*
X25000000Y-120500000D01*
X37000000Y-120500000D02*
X38000000Y-120500000D01*
X38000000Y-106500000D02*
X37000000Y-106500000D01*
X24000000Y-107500000D02*
X24000000Y-106500000D01*
X24000000Y-120500000D02*
X24000000Y-119500000D01*
X38000000Y-106500000D02*
X38000000Y-107500000D01*
X141010000Y-120500000D02*
X141010000Y-119500000D01*
X155010000Y-106500000D02*
X154010000Y-106500000D01*
X154010000Y-120500000D02*
X155010000Y-120500000D01*
X141010000Y-107500000D02*
X141010000Y-106500000D01*
X155010000Y-106500000D02*
X155010000Y-107500000D01*
X155010000Y-119500000D02*
X155010000Y-120500000D01*
X142010000Y-106500000D02*
X141010000Y-106500000D01*
X141010000Y-120500000D02*
X142010000Y-120500000D01*
X42000000Y-120500000D02*
X43000000Y-120500000D01*
X43000000Y-106500000D02*
X42000000Y-106500000D01*
X55000000Y-120500000D02*
X56000000Y-120500000D01*
X56000000Y-106500000D02*
X56000000Y-107500000D01*
X56000000Y-119500000D02*
X56000000Y-120500000D01*
X56000000Y-106500000D02*
X55000000Y-106500000D01*
X42000000Y-107500000D02*
X42000000Y-106500000D01*
X42000000Y-120500000D02*
X42000000Y-119500000D01*
D11*
X130710000Y-102320000D02*
X128550000Y-102320000D01*
X130710000Y-105480000D02*
X129250000Y-105480000D01*
X130710000Y-105480000D02*
X130710000Y-104550000D01*
X130710000Y-102320000D02*
X130710000Y-103250000D01*
D10*
X258000000Y-86500000D02*
X259000000Y-86500000D01*
X271000000Y-86500000D02*
X272000000Y-86500000D01*
X258000000Y-73500000D02*
X258000000Y-72500000D01*
X258000000Y-86500000D02*
X258000000Y-85500000D01*
X272000000Y-72500000D02*
X272000000Y-73500000D01*
X272000000Y-72500000D02*
X271000000Y-72500000D01*
X272000000Y-85500000D02*
X272000000Y-86500000D01*
X259000000Y-72500000D02*
X258000000Y-72500000D01*
D11*
X152690000Y-69330000D02*
X143290000Y-69330000D01*
X152690000Y-71230000D02*
X152690000Y-69330000D01*
X143290000Y-71230000D02*
X143290000Y-69330000D01*
X143290000Y-75130000D02*
X143290000Y-73130000D01*
X152690000Y-75130000D02*
X152690000Y-73130000D01*
D10*
X200000000Y-123500000D02*
X200000000Y-124500000D01*
X199000000Y-137500000D02*
X200000000Y-137500000D01*
X187000000Y-123500000D02*
X186000000Y-123500000D01*
X186000000Y-137500000D02*
X186000000Y-136500000D01*
X186000000Y-137500000D02*
X187000000Y-137500000D01*
X200000000Y-123500000D02*
X199000000Y-123500000D01*
X186000000Y-124500000D02*
X186000000Y-123500000D01*
X200000000Y-136500000D02*
X200000000Y-137500000D01*
X236000000Y-123500000D02*
X236000000Y-124500000D01*
X236000000Y-123500000D02*
X235000000Y-123500000D01*
X235000000Y-137500000D02*
X236000000Y-137500000D01*
X222000000Y-124500000D02*
X222000000Y-123500000D01*
X236000000Y-136500000D02*
X236000000Y-137500000D01*
X223000000Y-123500000D02*
X222000000Y-123500000D01*
X222000000Y-137500000D02*
X222000000Y-136500000D01*
X222000000Y-137500000D02*
X223000000Y-137500000D01*
D11*
X165270598Y-80139774D02*
X166725042Y-80267021D01*
X164995186Y-83287749D02*
X165076241Y-82361288D01*
X164995186Y-83287749D02*
X167146967Y-83476006D01*
X165270598Y-80139774D02*
X165189543Y-81066235D01*
X156015000Y-75662936D02*
X156015000Y-76117064D01*
X157485000Y-75662936D02*
X157485000Y-76117064D01*
D10*
X79000000Y-89500000D02*
X78000000Y-89500000D01*
X92000000Y-89500000D02*
X91000000Y-89500000D01*
X92000000Y-89500000D02*
X92000000Y-90500000D01*
X92000000Y-102500000D02*
X92000000Y-103500000D01*
X78000000Y-103500000D02*
X78000000Y-102500000D01*
X78000000Y-103500000D02*
X79000000Y-103500000D01*
X78000000Y-90500000D02*
X78000000Y-89500000D01*
X91000000Y-103500000D02*
X92000000Y-103500000D01*
D11*
X163123411Y-87381131D02*
X162525618Y-88093553D01*
X163123411Y-87381131D02*
X164241836Y-88319601D01*
X161092202Y-89801832D02*
X161689994Y-89089410D01*
X161092202Y-89801832D02*
X162746858Y-91190253D01*
D10*
X91000000Y-86500000D02*
X92000000Y-86500000D01*
X78000000Y-73500000D02*
X78000000Y-72500000D01*
X79000000Y-72500000D02*
X78000000Y-72500000D01*
X78000000Y-86500000D02*
X78000000Y-85500000D01*
X78000000Y-86500000D02*
X79000000Y-86500000D01*
X92000000Y-72500000D02*
X92000000Y-73500000D01*
X92000000Y-85500000D02*
X92000000Y-86500000D01*
X92000000Y-72500000D02*
X91000000Y-72500000D01*
D11*
X138545000Y-77782936D02*
X138545000Y-78237064D01*
X137075000Y-77782936D02*
X137075000Y-78237064D01*
D10*
X164000000Y-119500000D02*
X164000000Y-120500000D01*
X164000000Y-106500000D02*
X164000000Y-107500000D01*
X150000000Y-120500000D02*
X151000000Y-120500000D01*
X150000000Y-107500000D02*
X150000000Y-106500000D01*
X164000000Y-106500000D02*
X163000000Y-106500000D01*
X150000000Y-120500000D02*
X150000000Y-119500000D01*
X163000000Y-120500000D02*
X164000000Y-120500000D01*
X151000000Y-106500000D02*
X150000000Y-106500000D01*
X204000000Y-124500000D02*
X204000000Y-123500000D01*
X204000000Y-137500000D02*
X204000000Y-136500000D01*
X218000000Y-136500000D02*
X218000000Y-137500000D01*
X204000000Y-137500000D02*
X205000000Y-137500000D01*
X218000000Y-123500000D02*
X217000000Y-123500000D01*
X217000000Y-137500000D02*
X218000000Y-137500000D01*
X218000000Y-123500000D02*
X218000000Y-124500000D01*
X205000000Y-123500000D02*
X204000000Y-123500000D01*
X272000000Y-106500000D02*
X271000000Y-106500000D01*
X271000000Y-120500000D02*
X272000000Y-120500000D01*
X258000000Y-107500000D02*
X258000000Y-106500000D01*
X272000000Y-119500000D02*
X272000000Y-120500000D01*
X272000000Y-106500000D02*
X272000000Y-107500000D01*
X258000000Y-120500000D02*
X258000000Y-119500000D01*
X258000000Y-120500000D02*
X259000000Y-120500000D01*
X259000000Y-106500000D02*
X258000000Y-106500000D01*
X150000000Y-124500000D02*
X150000000Y-123500000D01*
X150000000Y-137500000D02*
X150000000Y-136500000D01*
X151000000Y-123500000D02*
X150000000Y-123500000D01*
X150000000Y-137500000D02*
X151000000Y-137500000D01*
X163000000Y-137500000D02*
X164000000Y-137500000D01*
X164000000Y-136500000D02*
X164000000Y-137500000D01*
X164000000Y-123500000D02*
X163000000Y-123500000D01*
X164000000Y-123500000D02*
X164000000Y-124500000D01*
D11*
X159106821Y-106023320D02*
X158641821Y-105217917D01*
X159106821Y-106023320D02*
X160977436Y-104943320D01*
X157526821Y-103286680D02*
X158791218Y-102556680D01*
X157526821Y-103286680D02*
X157991821Y-104092083D01*
X141700000Y-123120000D02*
X131480000Y-123120000D01*
X144300000Y-123120000D02*
X142970000Y-123120000D01*
X141700000Y-120460000D02*
X141700000Y-123120000D01*
X144300000Y-121790000D02*
X144300000Y-123120000D01*
X141700000Y-120460000D02*
X131480000Y-120460000D01*
X131480000Y-120460000D02*
X131480000Y-123120000D01*
D10*
X61000000Y-123500000D02*
X60000000Y-123500000D01*
X74000000Y-123500000D02*
X73000000Y-123500000D01*
X74000000Y-136500000D02*
X74000000Y-137500000D01*
X60000000Y-124500000D02*
X60000000Y-123500000D01*
X74000000Y-123500000D02*
X74000000Y-124500000D01*
X73000000Y-137500000D02*
X74000000Y-137500000D01*
X60000000Y-137500000D02*
X60000000Y-136500000D01*
X60000000Y-137500000D02*
X61000000Y-137500000D01*
X110000000Y-72500000D02*
X110000000Y-73500000D01*
X110000000Y-72500000D02*
X109000000Y-72500000D01*
X110000000Y-85500000D02*
X110000000Y-86500000D01*
X96000000Y-86500000D02*
X96000000Y-85500000D01*
X96000000Y-86500000D02*
X97000000Y-86500000D01*
X97000000Y-72500000D02*
X96000000Y-72500000D01*
X109000000Y-86500000D02*
X110000000Y-86500000D01*
X96000000Y-73500000D02*
X96000000Y-72500000D01*
D11*
X150785000Y-80691252D02*
X150785000Y-80168748D01*
X152255000Y-80691252D02*
X152255000Y-80168748D01*
X153367487Y-90409060D02*
X150539060Y-93237487D01*
X155700940Y-92742513D02*
X153367487Y-90409060D01*
X135416268Y-85190000D02*
X135600116Y-85373848D01*
X141196866Y-87116866D02*
X143123732Y-85190000D01*
X137343134Y-83263134D02*
X135416268Y-85190000D01*
X135600116Y-85373848D02*
X134415712Y-86558252D01*
X137343134Y-83263134D02*
X139270000Y-81336268D01*
X141196866Y-87116866D02*
X139270000Y-89043732D01*
X139270000Y-89043732D02*
X139086152Y-88859884D01*
X143123732Y-85190000D02*
X142939884Y-85006152D01*
X139270000Y-81336268D02*
X139453848Y-81520116D01*
D10*
X92000000Y-106500000D02*
X92000000Y-107500000D01*
X92000000Y-119500000D02*
X92000000Y-120500000D01*
X79000000Y-106500000D02*
X78000000Y-106500000D01*
X92000000Y-106500000D02*
X91000000Y-106500000D01*
X78000000Y-107500000D02*
X78000000Y-106500000D01*
X78000000Y-120500000D02*
X79000000Y-120500000D01*
X91000000Y-120500000D02*
X92000000Y-120500000D01*
X78000000Y-120500000D02*
X78000000Y-119500000D01*
D11*
X139055000Y-77782936D02*
X139055000Y-78237064D01*
X140525000Y-77782936D02*
X140525000Y-78237064D01*
X147130000Y-101507500D02*
X146200000Y-101507500D01*
X147270000Y-102182500D02*
X146840000Y-102182500D01*
X144530000Y-101537500D02*
X145460000Y-101537500D01*
X146200000Y-98657500D02*
X145460000Y-98657500D01*
X144400000Y-98517500D02*
X144400000Y-98947500D01*
X144530000Y-99207500D02*
X145460000Y-99207500D01*
X144400000Y-98517500D02*
X144830000Y-98517500D01*
X147270000Y-102182500D02*
X147270000Y-101752500D01*
X145470000Y-102047500D02*
X146200000Y-102047500D01*
X144530000Y-101537500D02*
X144530000Y-99207500D01*
X145460000Y-98657500D02*
X145460000Y-102047500D01*
X147130000Y-100377500D02*
X147130000Y-99277500D01*
X146200000Y-102047500D02*
X146200000Y-98657500D01*
X147130000Y-100377500D02*
X147130000Y-101507500D01*
X147130000Y-99277500D02*
X146200000Y-99277500D01*
D10*
X254000000Y-85500000D02*
X254000000Y-86500000D01*
X240000000Y-73500000D02*
X240000000Y-72500000D01*
X241000000Y-72500000D02*
X240000000Y-72500000D01*
X253000000Y-86500000D02*
X254000000Y-86500000D01*
X254000000Y-72500000D02*
X253000000Y-72500000D01*
X240000000Y-86500000D02*
X241000000Y-86500000D01*
X240000000Y-86500000D02*
X240000000Y-85500000D01*
X254000000Y-72500000D02*
X254000000Y-73500000D01*
X222000000Y-120500000D02*
X222000000Y-119500000D01*
X236000000Y-106500000D02*
X236000000Y-107500000D01*
X223000000Y-106500000D02*
X222000000Y-106500000D01*
X236000000Y-119500000D02*
X236000000Y-120500000D01*
X235000000Y-120500000D02*
X236000000Y-120500000D01*
X236000000Y-106500000D02*
X235000000Y-106500000D01*
X222000000Y-120500000D02*
X223000000Y-120500000D01*
X222000000Y-107500000D02*
X222000000Y-106500000D01*
D11*
X145663975Y-103103558D02*
X145663975Y-104603558D01*
X150416025Y-104591442D02*
X150416025Y-103091442D01*
X150416025Y-104603436D02*
X145663975Y-104603558D01*
G36*
X150416025Y-104603436D02*
G01*
X149831025Y-104603436D01*
X150416025Y-103983436D01*
X150416025Y-104603436D01*
G37*
X150416025Y-104603436D02*
X149831025Y-104603436D01*
X150416025Y-103983436D01*
X150416025Y-104603436D01*
X153670000Y-74687936D02*
X153670000Y-75892064D01*
X155490000Y-74687936D02*
X155490000Y-75892064D01*
X144241025Y-104603436D02*
X139488975Y-104603558D01*
X139488975Y-103103558D02*
X139488975Y-104603558D01*
X144241025Y-104591442D02*
X144241025Y-103091442D01*
G36*
X144241025Y-104603436D02*
G01*
X143656025Y-104603436D01*
X144241025Y-103983436D01*
X144241025Y-104603436D01*
G37*
X144241025Y-104603436D02*
X143656025Y-104603436D01*
X144241025Y-103983436D01*
X144241025Y-104603436D01*
X130849402Y-80149774D02*
X128697621Y-80338030D01*
X130849402Y-80149774D02*
X130930457Y-81076235D01*
X131124814Y-83297749D02*
X131043759Y-82371288D01*
X131124814Y-83297749D02*
X129670370Y-83424997D01*
%LPC*%
G36*
X149770000Y-102067500D02*
G01*
X148980000Y-102067500D01*
X148980000Y-101627500D01*
X149770000Y-101627500D01*
X149770000Y-102067500D01*
G37*
X149770000Y-102067500D02*
X148980000Y-102067500D01*
X148980000Y-101627500D01*
X149770000Y-101627500D01*
X149770000Y-102067500D01*
G36*
X145320000Y-102067500D02*
G01*
X144530000Y-102067500D01*
X144530000Y-101627500D01*
X145320000Y-101627500D01*
X145320000Y-102067500D01*
G37*
X145320000Y-102067500D02*
X144530000Y-102067500D01*
X144530000Y-101627500D01*
X145320000Y-101627500D01*
X145320000Y-102067500D01*
D12*
X256000000Y-123650000D03*
X257650000Y-122000000D03*
X256000000Y-120350000D03*
X254833274Y-120833274D03*
X257166726Y-123166726D03*
X254833274Y-123166726D03*
X257166726Y-120833274D03*
X254350000Y-122000000D03*
D13*
X256000000Y-122000000D03*
D12*
X257650000Y-88000000D03*
X256000000Y-89650000D03*
X254350000Y-88000000D03*
X256000000Y-86350000D03*
X257166726Y-86833274D03*
X254833274Y-89166726D03*
X254833274Y-86833274D03*
D13*
X256000000Y-88000000D03*
D12*
X257166726Y-89166726D03*
X41166726Y-89166726D03*
X38833274Y-89166726D03*
D13*
X40000000Y-88000000D03*
D12*
X41166726Y-86833274D03*
X40000000Y-86350000D03*
X41650000Y-88000000D03*
X38833274Y-86833274D03*
X40000000Y-89650000D03*
X38350000Y-88000000D03*
X38350000Y-122000000D03*
X41650000Y-122000000D03*
X41166726Y-120833274D03*
X41166726Y-123166726D03*
X40000000Y-123650000D03*
D13*
X40000000Y-122000000D03*
D12*
X38833274Y-123166726D03*
X38833274Y-120833274D03*
X40000000Y-120350000D03*
X134500000Y-77150000D03*
D13*
X134500000Y-75500000D03*
D12*
X135666726Y-76666726D03*
X136150000Y-75500000D03*
X135666726Y-74333274D03*
X133333274Y-74333274D03*
X132850000Y-75500000D03*
X134500000Y-73850000D03*
X133333274Y-76666726D03*
X162666726Y-74333274D03*
X163150000Y-75500000D03*
X161500000Y-77150000D03*
X162666726Y-76666726D03*
X159850000Y-75500000D03*
X161500000Y-73850000D03*
D13*
X161500000Y-75500000D03*
D12*
X160333274Y-76666726D03*
X160333274Y-74333274D03*
X133333274Y-101666726D03*
X136150000Y-100500000D03*
X133333274Y-99333274D03*
X135666726Y-99333274D03*
D13*
X134500000Y-100500000D03*
D12*
X135666726Y-101666726D03*
X134500000Y-98850000D03*
X134500000Y-102150000D03*
X132850000Y-100500000D03*
D13*
X161500000Y-100500000D03*
D12*
X159850000Y-100500000D03*
X163150000Y-100500000D03*
X161500000Y-98850000D03*
X162666726Y-101666726D03*
X160333274Y-101666726D03*
X161500000Y-102150000D03*
X162666726Y-99333274D03*
X160333274Y-99333274D03*
D14*
X44000000Y-134250000D03*
X49000000Y-136450000D03*
D15*
X54500000Y-130500000D03*
D16*
X49000000Y-130500000D03*
D15*
X43500000Y-130500000D03*
D17*
X49000000Y-124600000D03*
X54000000Y-126700000D03*
D16*
X139000000Y-130500000D03*
D15*
X144500000Y-130500000D03*
X133500000Y-130500000D03*
D14*
X139000000Y-136450000D03*
X134000000Y-134250000D03*
D17*
X139000000Y-124600000D03*
X144000000Y-126700000D03*
D18*
X157640000Y-81380000D03*
X157640000Y-79480000D03*
D19*
X129060000Y-77140000D03*
X129060000Y-79040000D03*
X131060000Y-78090000D03*
D16*
X211000000Y-96500000D03*
D15*
X216500000Y-96500000D03*
D14*
X206000000Y-100250000D03*
D15*
X205500000Y-96500000D03*
D14*
X211000000Y-102450000D03*
D17*
X211000000Y-90600000D03*
X216000000Y-92700000D03*
D18*
X163210000Y-81380000D03*
X163210000Y-79480000D03*
D20*
X136603307Y-94455045D03*
X137824604Y-95910530D03*
X138746044Y-93897212D03*
D21*
X166869774Y-100821919D03*
X166539842Y-98950784D03*
X164735192Y-100233648D03*
D15*
X126500000Y-130500000D03*
D14*
X121000000Y-136450000D03*
D15*
X115500000Y-130500000D03*
D14*
X116000000Y-134250000D03*
D16*
X121000000Y-130500000D03*
D17*
X121000000Y-124600000D03*
X126000000Y-126700000D03*
D15*
X133500000Y-113500000D03*
D14*
X134000000Y-117250000D03*
X139000000Y-119450000D03*
D15*
X144500000Y-113500000D03*
D16*
X139000000Y-113500000D03*
D17*
X139000000Y-107600000D03*
X144000000Y-109700000D03*
D18*
X147480000Y-81380000D03*
X147480000Y-79480000D03*
D22*
X129455158Y-98965784D03*
X129125226Y-100836919D03*
X131259808Y-100248648D03*
D23*
X159008249Y-85748249D03*
X160351751Y-87091751D03*
D24*
X129982205Y-85301626D03*
X130785180Y-87023611D03*
X132196308Y-85317382D03*
D23*
X154678249Y-90078249D03*
X156021751Y-91421751D03*
D14*
X170000000Y-117250000D03*
D15*
X169500000Y-113500000D03*
D14*
X175000000Y-119450000D03*
D16*
X175000000Y-113500000D03*
D15*
X180500000Y-113500000D03*
D17*
X175000000Y-107600000D03*
X180000000Y-109700000D03*
D25*
X165994612Y-96900688D03*
X165344773Y-95115272D03*
X163790307Y-96692020D03*
D26*
X139144604Y-99879470D03*
X137923307Y-101334955D03*
X140066044Y-101892788D03*
D27*
X141789645Y-97121142D03*
X140446142Y-98464645D03*
X142532107Y-99207107D03*
D19*
X164975000Y-124275000D03*
X164975000Y-126175000D03*
X166975000Y-125225000D03*
D28*
X130645534Y-95133252D03*
X129995695Y-96918668D03*
X132200000Y-96710000D03*
D14*
X62000000Y-100250000D03*
X67000000Y-102450000D03*
D15*
X72500000Y-96500000D03*
D16*
X67000000Y-96500000D03*
D15*
X61500000Y-96500000D03*
D17*
X67000000Y-90600000D03*
X72000000Y-92700000D03*
D20*
X134333307Y-91725045D03*
X135554604Y-93180530D03*
X136476044Y-91167212D03*
D15*
X72500000Y-113500000D03*
X61500000Y-113500000D03*
D16*
X67000000Y-113500000D03*
D14*
X62000000Y-117250000D03*
X67000000Y-119450000D03*
D17*
X67000000Y-107600000D03*
X72000000Y-109700000D03*
D14*
X206000000Y-117250000D03*
D16*
X211000000Y-113500000D03*
D15*
X216500000Y-113500000D03*
D14*
X211000000Y-119450000D03*
D15*
X205500000Y-113500000D03*
D17*
X211000000Y-107600000D03*
X216000000Y-109700000D03*
D15*
X126500000Y-79500000D03*
X115500000Y-79500000D03*
D16*
X121000000Y-79500000D03*
D14*
X121000000Y-85450000D03*
X116000000Y-83250000D03*
D17*
X121000000Y-73600000D03*
X126000000Y-75700000D03*
D14*
X175000000Y-102450000D03*
D15*
X169500000Y-96500000D03*
D16*
X175000000Y-96500000D03*
D15*
X180500000Y-96500000D03*
D14*
X170000000Y-100250000D03*
D17*
X175000000Y-90600000D03*
X180000000Y-92700000D03*
D23*
X157568249Y-87178249D03*
X158911751Y-88521751D03*
D29*
X141610000Y-74662500D03*
X141610000Y-72837500D03*
D14*
X121000000Y-102450000D03*
D15*
X115500000Y-96500000D03*
D16*
X121000000Y-96500000D03*
D15*
X126500000Y-96500000D03*
D14*
X116000000Y-100250000D03*
D17*
X121000000Y-90600000D03*
X126000000Y-92700000D03*
D15*
X142490000Y-130500000D03*
D16*
X147990000Y-130500000D03*
D14*
X142990000Y-134250000D03*
D15*
X153490000Y-130500000D03*
D14*
X147990000Y-136450000D03*
D17*
X147990000Y-124600000D03*
X152990000Y-126700000D03*
D30*
X158810000Y-72750000D03*
D31*
X161350000Y-72750000D03*
X163890000Y-72750000D03*
D32*
X158151693Y-101209955D03*
X156930396Y-99754470D03*
X156008956Y-101767788D03*
D15*
X54500000Y-79500000D03*
D16*
X49000000Y-79500000D03*
D14*
X44000000Y-83250000D03*
D15*
X43500000Y-79500000D03*
D14*
X49000000Y-85450000D03*
D17*
X49000000Y-73600000D03*
X54000000Y-75700000D03*
D15*
X270500000Y-130500000D03*
D16*
X265000000Y-130500000D03*
D15*
X259500000Y-130500000D03*
D14*
X265000000Y-136450000D03*
X260000000Y-134250000D03*
D17*
X265000000Y-124600000D03*
X270000000Y-126700000D03*
D20*
X132043307Y-89005045D03*
X133264604Y-90460530D03*
X134186044Y-88447212D03*
D14*
X242000000Y-134250000D03*
D16*
X247000000Y-130500000D03*
D14*
X247000000Y-136450000D03*
D15*
X252500000Y-130500000D03*
X241500000Y-130500000D03*
D17*
X247000000Y-124600000D03*
X252000000Y-126700000D03*
D12*
X162656726Y-131233274D03*
X161490000Y-130750000D03*
X163140000Y-132400000D03*
X162656726Y-133566726D03*
X161490000Y-134050000D03*
D13*
X161490000Y-132400000D03*
D12*
X159840000Y-132400000D03*
X160323274Y-133566726D03*
X160323274Y-131233274D03*
D33*
X149382000Y-101860750D03*
D34*
X151183000Y-101845750D03*
D35*
X149382000Y-98864250D03*
D36*
X151180500Y-98899250D03*
D14*
X112010000Y-136450000D03*
D15*
X106510000Y-130500000D03*
X117510000Y-130500000D03*
D16*
X112010000Y-130500000D03*
D14*
X107010000Y-134250000D03*
D17*
X112010000Y-124600000D03*
X117010000Y-126700000D03*
D16*
X247000000Y-113500000D03*
D15*
X241500000Y-113500000D03*
X252500000Y-113500000D03*
D14*
X247000000Y-119450000D03*
X242000000Y-117250000D03*
D17*
X247000000Y-107600000D03*
X252000000Y-109700000D03*
D37*
X167050000Y-104840000D03*
X167050000Y-102940000D03*
X165050000Y-103890000D03*
X131000000Y-126175000D03*
X131000000Y-124275000D03*
X129000000Y-125225000D03*
D16*
X85000000Y-130500000D03*
D15*
X79500000Y-130500000D03*
D14*
X85000000Y-136450000D03*
D15*
X90500000Y-130500000D03*
D14*
X80000000Y-134250000D03*
D17*
X85000000Y-124600000D03*
X90000000Y-126700000D03*
D38*
X137861751Y-81028249D03*
X136518249Y-82371751D03*
D14*
X175000000Y-136450000D03*
D15*
X169500000Y-130500000D03*
X180500000Y-130500000D03*
D16*
X175000000Y-130500000D03*
D14*
X170000000Y-134250000D03*
D17*
X175000000Y-124600000D03*
X180000000Y-126700000D03*
D39*
X140204765Y-92615235D03*
X141495235Y-91324765D03*
D40*
X161330000Y-84850000D03*
D41*
X145510000Y-121000000D03*
D42*
X150510000Y-121000000D03*
X148010000Y-121000000D03*
D43*
X142410000Y-113500000D03*
X153610000Y-113500000D03*
D42*
X150510000Y-106500000D03*
X145510000Y-106500000D03*
D14*
X26000000Y-83250000D03*
D15*
X36500000Y-79500000D03*
X25500000Y-79500000D03*
D14*
X31000000Y-85450000D03*
D16*
X31000000Y-79500000D03*
D17*
X31000000Y-73600000D03*
X36000000Y-75700000D03*
D15*
X169500000Y-79500000D03*
D14*
X175000000Y-85450000D03*
D15*
X180500000Y-79500000D03*
D16*
X175000000Y-79500000D03*
D14*
X170000000Y-83250000D03*
D17*
X175000000Y-73600000D03*
X180000000Y-75700000D03*
D44*
X165334820Y-87023611D03*
X166137795Y-85301626D03*
X163923692Y-85317382D03*
D14*
X229000000Y-85450000D03*
D15*
X223500000Y-79500000D03*
D16*
X229000000Y-79500000D03*
D15*
X234500000Y-79500000D03*
D14*
X224000000Y-83250000D03*
D17*
X229000000Y-73600000D03*
X234000000Y-75700000D03*
D18*
X141780000Y-78980000D03*
X141780000Y-77080000D03*
D45*
X152591025Y-103616442D03*
D46*
X152366025Y-103541442D03*
D47*
X153591025Y-103616442D03*
D48*
X154616025Y-103616442D03*
D45*
X155741025Y-103616442D03*
D46*
X155966025Y-103541442D03*
D49*
X155628858Y-98334645D03*
X154285355Y-96991142D03*
X153542893Y-99077107D03*
D50*
X136708975Y-103077276D03*
X135758975Y-104722724D03*
X137966025Y-104900000D03*
D37*
X167060000Y-79040000D03*
X167060000Y-77140000D03*
X165060000Y-78090000D03*
D51*
X143730843Y-88602202D03*
X144013686Y-88885045D03*
X144296528Y-89167887D03*
X144579371Y-89450730D03*
X144862214Y-89733573D03*
X145145056Y-90016415D03*
X145427899Y-90299258D03*
X145710742Y-90582101D03*
X145993585Y-90864944D03*
X146276427Y-91147786D03*
X146559270Y-91430629D03*
X146842113Y-91713472D03*
X147124955Y-91996314D03*
X147407798Y-92279157D03*
D52*
X148592202Y-92279157D03*
X148875045Y-91996314D03*
X149157887Y-91713472D03*
X149440730Y-91430629D03*
X149723573Y-91147786D03*
X150006415Y-90864944D03*
X150289258Y-90582101D03*
X150572101Y-90299258D03*
X150854944Y-90016415D03*
X151137786Y-89733573D03*
X151420629Y-89450730D03*
X151703472Y-89167887D03*
X151986314Y-88885045D03*
X152269157Y-88602202D03*
D51*
X152269157Y-87417798D03*
X151986314Y-87134955D03*
X151703472Y-86852113D03*
X151420629Y-86569270D03*
X151137786Y-86286427D03*
X150854944Y-86003585D03*
X150572101Y-85720742D03*
X150289258Y-85437899D03*
X150006415Y-85155056D03*
X149723573Y-84872214D03*
X149440730Y-84589371D03*
X149157887Y-84306528D03*
X148875045Y-84023686D03*
X148592202Y-83740843D03*
D52*
X147407798Y-83740843D03*
X147124955Y-84023686D03*
X146842113Y-84306528D03*
X146559270Y-84589371D03*
X146276427Y-84872214D03*
X145993585Y-85155056D03*
X145710742Y-85437899D03*
X145427899Y-85720742D03*
X145145056Y-86003585D03*
X144862214Y-86286427D03*
X144579371Y-86569270D03*
X144296528Y-86852113D03*
X144013686Y-87134955D03*
X143730843Y-87417798D03*
D53*
X148000000Y-88010000D03*
D54*
X156114765Y-88664765D03*
X157405235Y-89955235D03*
D14*
X26000000Y-134250000D03*
D16*
X31000000Y-130500000D03*
D14*
X31000000Y-136450000D03*
D15*
X25500000Y-130500000D03*
X36500000Y-130500000D03*
D17*
X31000000Y-124600000D03*
X36000000Y-126700000D03*
D16*
X193000000Y-79500000D03*
D15*
X198500000Y-79500000D03*
D14*
X193000000Y-85450000D03*
D15*
X187500000Y-79500000D03*
D14*
X188000000Y-83250000D03*
D17*
X193000000Y-73600000D03*
X198000000Y-75700000D03*
D14*
X121000000Y-119450000D03*
D16*
X121000000Y-113500000D03*
D15*
X126500000Y-113500000D03*
D14*
X116000000Y-117250000D03*
D15*
X115500000Y-113500000D03*
D17*
X121000000Y-107600000D03*
X126000000Y-109700000D03*
D55*
X151551751Y-95901751D03*
X150208249Y-94558249D03*
D15*
X54500000Y-96500000D03*
X43500000Y-96500000D03*
D14*
X49000000Y-102450000D03*
X44000000Y-100250000D03*
D16*
X49000000Y-96500000D03*
D17*
X49000000Y-90600000D03*
X54000000Y-92700000D03*
D15*
X198500000Y-113500000D03*
D16*
X193000000Y-113500000D03*
D14*
X188000000Y-117250000D03*
D15*
X187500000Y-113500000D03*
D14*
X193000000Y-119450000D03*
D17*
X193000000Y-107600000D03*
X198000000Y-109700000D03*
D18*
X155620000Y-81380000D03*
X155620000Y-79480000D03*
D15*
X61500000Y-79500000D03*
D14*
X67000000Y-85450000D03*
X62000000Y-83250000D03*
D15*
X72500000Y-79500000D03*
D16*
X67000000Y-79500000D03*
D17*
X67000000Y-73600000D03*
X72000000Y-75700000D03*
D15*
X187500000Y-96500000D03*
X198500000Y-96500000D03*
D14*
X188000000Y-100250000D03*
X193000000Y-102450000D03*
D16*
X193000000Y-96500000D03*
D17*
X193000000Y-90600000D03*
X198000000Y-92700000D03*
D15*
X97500000Y-96500000D03*
D14*
X103000000Y-102450000D03*
X98000000Y-100250000D03*
D16*
X103000000Y-96500000D03*
D15*
X108500000Y-96500000D03*
D17*
X103000000Y-90600000D03*
X108000000Y-92700000D03*
D14*
X211000000Y-85450000D03*
D15*
X205500000Y-79500000D03*
D16*
X211000000Y-79500000D03*
D14*
X206000000Y-83250000D03*
D15*
X216500000Y-79500000D03*
D17*
X211000000Y-73600000D03*
X216000000Y-75700000D03*
D15*
X97500000Y-130500000D03*
D14*
X98000000Y-134250000D03*
D15*
X108500000Y-130500000D03*
D16*
X103000000Y-130500000D03*
D14*
X103000000Y-136450000D03*
D17*
X103000000Y-124600000D03*
X108000000Y-126700000D03*
D15*
X178490000Y-130500000D03*
D14*
X183990000Y-136450000D03*
D15*
X189490000Y-130500000D03*
D14*
X178990000Y-134250000D03*
D16*
X183990000Y-130500000D03*
D17*
X183990000Y-124600000D03*
X188990000Y-126700000D03*
D56*
X160555396Y-93170530D03*
X161776693Y-91715045D03*
X159633956Y-91157212D03*
X158258703Y-95885485D03*
X159480000Y-94430000D03*
X157337263Y-93872167D03*
D14*
X247000000Y-102450000D03*
D15*
X252500000Y-96500000D03*
X241500000Y-96500000D03*
D14*
X242000000Y-100250000D03*
D16*
X247000000Y-96500000D03*
D17*
X247000000Y-90600000D03*
X252000000Y-92700000D03*
D57*
X140095235Y-89894765D03*
X138804765Y-91185235D03*
D58*
X161380000Y-79430000D03*
X159480000Y-79430000D03*
X160430000Y-81430000D03*
D59*
X137730000Y-75257500D03*
X138680000Y-75257500D03*
X139630000Y-75257500D03*
X139630000Y-72982500D03*
X138680000Y-72982500D03*
X137730000Y-72982500D03*
D14*
X98000000Y-117250000D03*
D15*
X108500000Y-113500000D03*
D16*
X103000000Y-113500000D03*
D15*
X97500000Y-113500000D03*
D14*
X103000000Y-119450000D03*
D17*
X103000000Y-107600000D03*
X108000000Y-109700000D03*
D18*
X153530000Y-81380000D03*
X153530000Y-79480000D03*
D14*
X265000000Y-102450000D03*
D15*
X259500000Y-96500000D03*
D14*
X260000000Y-100250000D03*
D16*
X265000000Y-96500000D03*
D15*
X270500000Y-96500000D03*
D17*
X265000000Y-90600000D03*
X270000000Y-92700000D03*
D16*
X229000000Y-96500000D03*
D15*
X223500000Y-96500000D03*
D14*
X229000000Y-102450000D03*
D15*
X234500000Y-96500000D03*
D14*
X224000000Y-100250000D03*
D17*
X229000000Y-90600000D03*
X234000000Y-92700000D03*
D14*
X31000000Y-102450000D03*
D15*
X25500000Y-96500000D03*
D16*
X31000000Y-96500000D03*
D14*
X26000000Y-100250000D03*
D15*
X36500000Y-96500000D03*
D17*
X31000000Y-90600000D03*
X36000000Y-92700000D03*
D18*
X149500000Y-81380000D03*
X149500000Y-79480000D03*
D14*
X31000000Y-119450000D03*
D15*
X36500000Y-113500000D03*
D14*
X26000000Y-117250000D03*
D15*
X25500000Y-113500000D03*
D16*
X31000000Y-113500000D03*
D17*
X31000000Y-107600000D03*
X36000000Y-109700000D03*
D15*
X153510000Y-113500000D03*
D16*
X148010000Y-113500000D03*
D14*
X148010000Y-119450000D03*
X143010000Y-117250000D03*
D15*
X142510000Y-113500000D03*
D17*
X148010000Y-107600000D03*
X153010000Y-109700000D03*
D14*
X49000000Y-119450000D03*
D16*
X49000000Y-113500000D03*
D15*
X54500000Y-113500000D03*
D14*
X44000000Y-117250000D03*
D15*
X43500000Y-113500000D03*
D17*
X49000000Y-107600000D03*
X54000000Y-109700000D03*
D19*
X128950000Y-102950000D03*
X128950000Y-104850000D03*
X130950000Y-103900000D03*
D16*
X265000000Y-79500000D03*
D15*
X259500000Y-79500000D03*
D14*
X265000000Y-85450000D03*
D15*
X270500000Y-79500000D03*
D14*
X260000000Y-83250000D03*
D17*
X265000000Y-73600000D03*
X270000000Y-75700000D03*
D60*
X145100000Y-75830000D03*
X150880000Y-75830000D03*
D61*
X151240000Y-77275000D03*
X150440000Y-77275000D03*
D62*
X149240000Y-77275000D03*
X148240000Y-77275000D03*
X147740000Y-77275000D03*
X146740000Y-77275000D03*
D61*
X145540000Y-77275000D03*
X144740000Y-77275000D03*
X144740000Y-77275000D03*
X145540000Y-77275000D03*
D62*
X146240000Y-77275000D03*
X147240000Y-77275000D03*
X148740000Y-77275000D03*
X149740000Y-77275000D03*
D61*
X150440000Y-77275000D03*
X151240000Y-77275000D03*
D63*
X152310000Y-76360000D03*
D64*
X152310000Y-72180000D03*
D63*
X143670000Y-76360000D03*
D64*
X143670000Y-72180000D03*
D15*
X198500000Y-130500000D03*
X187500000Y-130500000D03*
D14*
X193000000Y-136450000D03*
D16*
X193000000Y-130500000D03*
D14*
X188000000Y-134250000D03*
D17*
X193000000Y-124600000D03*
X198000000Y-126700000D03*
D14*
X229000000Y-136450000D03*
X224000000Y-134250000D03*
D15*
X223500000Y-130500000D03*
D16*
X229000000Y-130500000D03*
D15*
X234500000Y-130500000D03*
D17*
X229000000Y-124600000D03*
X234000000Y-126700000D03*
D65*
X166803397Y-82813541D03*
X166968993Y-80920771D03*
X164893805Y-81692844D03*
D12*
X135656726Y-131233274D03*
X136140000Y-132400000D03*
D13*
X134490000Y-132400000D03*
D12*
X134490000Y-134050000D03*
X135656726Y-133566726D03*
X133323274Y-131233274D03*
X133323274Y-133566726D03*
X132840000Y-132400000D03*
X134490000Y-130750000D03*
D66*
X156750000Y-74977500D03*
X156750000Y-76802500D03*
D15*
X79500000Y-96500000D03*
D16*
X85000000Y-96500000D03*
D15*
X90500000Y-96500000D03*
D14*
X80000000Y-100250000D03*
X85000000Y-102450000D03*
D17*
X85000000Y-90600000D03*
X90000000Y-92700000D03*
D56*
X162845396Y-90450530D03*
X164066693Y-88995045D03*
X161923956Y-88437212D03*
D14*
X85000000Y-85450000D03*
D15*
X90500000Y-79500000D03*
D16*
X85000000Y-79500000D03*
D14*
X80000000Y-83250000D03*
D15*
X79500000Y-79500000D03*
D17*
X85000000Y-73600000D03*
X90000000Y-75700000D03*
D66*
X137810000Y-77097500D03*
X137810000Y-78922500D03*
D16*
X157000000Y-113500000D03*
D14*
X152000000Y-117250000D03*
D15*
X162500000Y-113500000D03*
X151500000Y-113500000D03*
D14*
X157000000Y-119450000D03*
D17*
X157000000Y-107600000D03*
X162000000Y-109700000D03*
D14*
X206000000Y-134250000D03*
D16*
X211000000Y-130500000D03*
D14*
X211000000Y-136450000D03*
D15*
X216500000Y-130500000D03*
X205500000Y-130500000D03*
D17*
X211000000Y-124600000D03*
X216000000Y-126700000D03*
D14*
X260000000Y-117250000D03*
D15*
X259500000Y-113500000D03*
D16*
X265000000Y-113500000D03*
D14*
X265000000Y-119450000D03*
D15*
X270500000Y-113500000D03*
D17*
X265000000Y-107600000D03*
X270000000Y-109700000D03*
D14*
X152000000Y-134250000D03*
X157000000Y-136450000D03*
D16*
X157000000Y-130500000D03*
D15*
X162500000Y-130500000D03*
X151500000Y-130500000D03*
D17*
X157000000Y-124600000D03*
X162000000Y-126700000D03*
D67*
X160316025Y-104597724D03*
X159366025Y-102952276D03*
X158108975Y-104775000D03*
D68*
X142970000Y-121890000D03*
D31*
X140430000Y-121790000D03*
X137890000Y-121790000D03*
X135350000Y-121790000D03*
X132810000Y-121790000D03*
D16*
X67000000Y-130500000D03*
D14*
X67000000Y-136450000D03*
D15*
X61500000Y-130500000D03*
D14*
X62000000Y-134250000D03*
D15*
X72500000Y-130500000D03*
D17*
X67000000Y-124600000D03*
X72000000Y-126700000D03*
D16*
X103000000Y-79500000D03*
D15*
X108500000Y-79500000D03*
X97500000Y-79500000D03*
D14*
X103000000Y-85450000D03*
X98000000Y-83250000D03*
D17*
X103000000Y-73600000D03*
X108000000Y-75700000D03*
D18*
X151520000Y-81380000D03*
X151520000Y-79480000D03*
D69*
X153296777Y-91611142D03*
X151741142Y-93166777D03*
X152943223Y-94368858D03*
X154498858Y-92813223D03*
D70*
X135377377Y-86388546D03*
X136275403Y-87286572D03*
X137173428Y-88184597D03*
X138071454Y-89082623D03*
X143162623Y-83991454D03*
X142264597Y-83093428D03*
X141366572Y-82195403D03*
X140468546Y-81297377D03*
D15*
X90500000Y-113500000D03*
D14*
X85000000Y-119450000D03*
D16*
X85000000Y-113500000D03*
D15*
X79500000Y-113500000D03*
D14*
X80000000Y-117250000D03*
D17*
X85000000Y-107600000D03*
X90000000Y-109700000D03*
D66*
X139790000Y-77097500D03*
X139790000Y-78922500D03*
D33*
X144932000Y-101860750D03*
D34*
X146733000Y-101845750D03*
D35*
X144932000Y-98864250D03*
D36*
X146730500Y-98899250D03*
D14*
X242000000Y-83250000D03*
D15*
X252500000Y-79500000D03*
D16*
X247000000Y-79500000D03*
D14*
X247000000Y-85450000D03*
D15*
X241500000Y-79500000D03*
D17*
X247000000Y-73600000D03*
X252000000Y-75700000D03*
D15*
X234500000Y-113500000D03*
D16*
X229000000Y-113500000D03*
D14*
X224000000Y-117250000D03*
X229000000Y-119450000D03*
D15*
X223500000Y-113500000D03*
D17*
X229000000Y-107600000D03*
X234000000Y-109700000D03*
D45*
X146466025Y-103616442D03*
D46*
X146241025Y-103541442D03*
D47*
X147466025Y-103616442D03*
D48*
X148491025Y-103616442D03*
D45*
X149616025Y-103616442D03*
D46*
X149841025Y-103541442D03*
D71*
X154580000Y-73890000D03*
X154580000Y-76690000D03*
D45*
X140291025Y-103616442D03*
D46*
X140066025Y-103541442D03*
D47*
X141291025Y-103616442D03*
D48*
X142316025Y-103616442D03*
D45*
X143441025Y-103616442D03*
D46*
X143666025Y-103541442D03*
D72*
X129151007Y-80930771D03*
X129316603Y-82823541D03*
X131226195Y-81702844D03*
M02*
