G04 #@! TF.GenerationSoftware,KiCad,Pcbnew,(6.0.8)*
G04 #@! TF.CreationDate,2022-10-26T23:44:55+02:00*
G04 #@! TF.ProjectId,RP2040_tmp,52503230-3430-45f7-946d-702e6b696361,2.3*
G04 #@! TF.SameCoordinates,Original*
G04 #@! TF.FileFunction,Soldermask,Bot*
G04 #@! TF.FilePolarity,Negative*
%FSLAX46Y46*%
G04 Gerber Fmt 4.6, Leading zero omitted, Abs format (unit mm)*
G04 Created by KiCad (PCBNEW (6.0.8)) date 2022-10-26 23:44:55*
%MOMM*%
%LPD*%
G01*
G04 APERTURE LIST*
G04 Aperture macros list*
%AMRoundRect*
0 Rectangle with rounded corners*
0 $1 Rounding radius*
0 $2 $3 $4 $5 $6 $7 $8 $9 X,Y pos of 4 corners*
0 Add a 4 corners polygon primitive as box body*
4,1,4,$2,$3,$4,$5,$6,$7,$8,$9,$2,$3,0*
0 Add four circle primitives for the rounded corners*
1,1,$1+$1,$2,$3*
1,1,$1+$1,$4,$5*
1,1,$1+$1,$6,$7*
1,1,$1+$1,$8,$9*
0 Add four rect primitives between the rounded corners*
20,1,$1+$1,$2,$3,$4,$5,0*
20,1,$1+$1,$4,$5,$6,$7,0*
20,1,$1+$1,$6,$7,$8,$9,0*
20,1,$1+$1,$8,$9,$2,$3,0*%
G04 Aperture macros list end*
%ADD10C,0.800000*%
%ADD11C,4.500000*%
%ADD12C,3.100000*%
%ADD13C,1.801800*%
%ADD14C,3.529000*%
%ADD15RoundRect,0.050000X1.300000X1.300000X-1.300000X1.300000X-1.300000X-1.300000X1.300000X-1.300000X0*%
%ADD16C,2.200000*%
%ADD17RoundRect,0.050000X1.300000X1.100000X-1.300000X1.100000X-1.300000X-1.100000X1.300000X-1.100000X0*%
%ADD18RoundRect,0.050000X1.000000X1.500000X-1.000000X1.500000X-1.000000X-1.500000X1.000000X-1.500000X0*%
%ADD19RoundRect,0.050000X0.912500X1.315000X-0.912500X1.315000X-0.912500X-1.315000X0.912500X-1.315000X0*%
%ADD20RoundRect,0.050000X0.992500X1.310000X-0.992500X1.310000X-0.992500X-1.310000X0.992500X-1.310000X0*%
%ADD21RoundRect,0.050000X0.850000X-0.850000X0.850000X0.850000X-0.850000X0.850000X-0.850000X-0.850000X0*%
%ADD22O,1.800000X1.800000*%
%ADD23RoundRect,0.050000X1.027500X1.320000X-1.027500X1.320000X-1.027500X-1.320000X1.027500X-1.320000X0*%
%ADD24RoundRect,0.050000X0.982500X1.300000X-0.982500X1.300000X-0.982500X-1.300000X0.982500X-1.300000X0*%
%ADD25RoundRect,0.050000X0.707107X0.000000X0.000000X0.707107X-0.707107X0.000000X0.000000X-0.707107X0*%
%ADD26RoundRect,0.050000X1.000000X-1.000000X1.000000X1.000000X-1.000000X1.000000X-1.000000X-1.000000X0*%
%ADD27C,2.100000*%
%ADD28RoundRect,0.050000X1.000000X-1.600000X1.000000X1.600000X-1.000000X1.600000X-1.000000X-1.600000X0*%
%ADD29RoundRect,0.050000X0.947500X1.335000X-0.947500X1.335000X-0.947500X-1.335000X0.947500X-1.335000X0*%
%ADD30RoundRect,0.050000X0.942500X1.285000X-0.942500X1.285000X-0.942500X-1.285000X0.942500X-1.285000X0*%
%ADD31RoundRect,0.050000X0.463750X1.293750X-0.463750X1.293750X-0.463750X-1.293750X0.463750X-1.293750X0*%
%ADD32RoundRect,0.050000X1.285000X0.825000X-1.285000X0.825000X-1.285000X-0.825000X1.285000X-0.825000X0*%
%ADD33RoundRect,0.050000X0.962500X1.300000X-0.962500X1.300000X-0.962500X-1.300000X0.962500X-1.300000X0*%
%ADD34C,0.750000*%
%ADD35O,1.100000X2.200000*%
%ADD36O,1.100000X1.700000*%
%ADD37RoundRect,0.050000X0.982500X1.285000X-0.982500X1.285000X-0.982500X-1.285000X0.982500X-1.285000X0*%
%ADD38RoundRect,0.050000X1.027500X1.275000X-1.027500X1.275000X-1.027500X-1.275000X1.027500X-1.275000X0*%
%ADD39RoundRect,0.050000X-0.850000X0.850000X-0.850000X-0.850000X0.850000X-0.850000X0.850000X0.850000X0*%
G04 APERTURE END LIST*
D10*
X256000000Y-123650000D03*
X257650000Y-122000000D03*
X256000000Y-120350000D03*
X254833274Y-120833274D03*
X257166726Y-123166726D03*
X254833274Y-123166726D03*
X257166726Y-120833274D03*
X254350000Y-122000000D03*
D11*
X256000000Y-122000000D03*
D10*
X257650000Y-88000000D03*
X256000000Y-89650000D03*
X254350000Y-88000000D03*
X256000000Y-86350000D03*
X257166726Y-86833274D03*
X254833274Y-89166726D03*
X254833274Y-86833274D03*
D11*
X256000000Y-88000000D03*
D10*
X257166726Y-89166726D03*
X41166726Y-89166726D03*
X38833274Y-89166726D03*
D11*
X40000000Y-88000000D03*
D10*
X41166726Y-86833274D03*
X40000000Y-86350000D03*
X41650000Y-88000000D03*
X38833274Y-86833274D03*
X40000000Y-89650000D03*
X38350000Y-88000000D03*
X38350000Y-122000000D03*
X41650000Y-122000000D03*
X41166726Y-120833274D03*
X41166726Y-123166726D03*
X40000000Y-123650000D03*
D11*
X40000000Y-122000000D03*
D10*
X38833274Y-123166726D03*
X38833274Y-120833274D03*
X40000000Y-120350000D03*
X134500000Y-77150000D03*
D11*
X134500000Y-75500000D03*
D10*
X135666726Y-76666726D03*
X136150000Y-75500000D03*
X135666726Y-74333274D03*
X133333274Y-74333274D03*
X132850000Y-75500000D03*
X134500000Y-73850000D03*
X133333274Y-76666726D03*
X162666726Y-74333274D03*
X163150000Y-75500000D03*
X161500000Y-77150000D03*
X162666726Y-76666726D03*
X159850000Y-75500000D03*
X161500000Y-73850000D03*
D11*
X161500000Y-75500000D03*
D10*
X160333274Y-76666726D03*
X160333274Y-74333274D03*
X133333274Y-101666726D03*
X136150000Y-100500000D03*
X133333274Y-99333274D03*
X135666726Y-99333274D03*
D11*
X134500000Y-100500000D03*
D10*
X135666726Y-101666726D03*
X134500000Y-98850000D03*
X134500000Y-102150000D03*
X132850000Y-100500000D03*
D11*
X161500000Y-100500000D03*
D10*
X159850000Y-100500000D03*
X163150000Y-100500000D03*
X161500000Y-98850000D03*
X162666726Y-101666726D03*
X160333274Y-101666726D03*
X161500000Y-102150000D03*
X162666726Y-99333274D03*
X160333274Y-99333274D03*
D12*
X44000000Y-134250000D03*
X49000000Y-136450000D03*
D13*
X54500000Y-130500000D03*
D14*
X49000000Y-130500000D03*
D13*
X43500000Y-130500000D03*
D15*
X52275000Y-136450000D03*
D16*
X49000000Y-124600000D03*
X54000000Y-126700000D03*
D15*
X40725000Y-134250000D03*
D14*
X139000000Y-130500000D03*
D13*
X144500000Y-130500000D03*
X133500000Y-130500000D03*
D12*
X139000000Y-136450000D03*
X134000000Y-134250000D03*
D15*
X142275000Y-136450000D03*
D16*
X139000000Y-124600000D03*
D15*
X130725000Y-134250000D03*
D16*
X144000000Y-126700000D03*
D14*
X211000000Y-96500000D03*
D13*
X216500000Y-96500000D03*
D12*
X206000000Y-100250000D03*
D13*
X205500000Y-96500000D03*
D12*
X211000000Y-102450000D03*
D16*
X211000000Y-90600000D03*
D15*
X214275000Y-102450000D03*
X202725000Y-100250000D03*
D16*
X216000000Y-92700000D03*
D13*
X126500000Y-130500000D03*
D12*
X121000000Y-136450000D03*
D13*
X115500000Y-130500000D03*
D12*
X116000000Y-134250000D03*
D14*
X121000000Y-130500000D03*
D15*
X124275000Y-136450000D03*
D16*
X121000000Y-124600000D03*
D15*
X112725000Y-134250000D03*
D16*
X126000000Y-126700000D03*
D13*
X133500000Y-113500000D03*
D12*
X134000000Y-117250000D03*
X139000000Y-119450000D03*
D13*
X144500000Y-113500000D03*
D14*
X139000000Y-113500000D03*
D16*
X139000000Y-107600000D03*
D17*
X142275000Y-119450000D03*
D16*
X144000000Y-109700000D03*
D15*
X130725000Y-117250000D03*
D12*
X170000000Y-117250000D03*
D13*
X169500000Y-113500000D03*
D12*
X175000000Y-119450000D03*
D14*
X175000000Y-113500000D03*
D13*
X180500000Y-113500000D03*
D16*
X175000000Y-107600000D03*
D15*
X178275000Y-119450000D03*
D16*
X180000000Y-109700000D03*
D15*
X166725000Y-117250000D03*
D12*
X62000000Y-100250000D03*
X67000000Y-102450000D03*
D13*
X72500000Y-96500000D03*
D14*
X67000000Y-96500000D03*
D13*
X61500000Y-96500000D03*
D16*
X67000000Y-90600000D03*
D15*
X70275000Y-102450000D03*
D16*
X72000000Y-92700000D03*
D15*
X58725000Y-100250000D03*
D13*
X72500000Y-113500000D03*
X61500000Y-113500000D03*
D14*
X67000000Y-113500000D03*
D12*
X62000000Y-117250000D03*
X67000000Y-119450000D03*
D16*
X67000000Y-107600000D03*
D15*
X70275000Y-119450000D03*
X58725000Y-117250000D03*
D16*
X72000000Y-109700000D03*
D12*
X206000000Y-117250000D03*
D14*
X211000000Y-113500000D03*
D13*
X216500000Y-113500000D03*
D12*
X211000000Y-119450000D03*
D13*
X205500000Y-113500000D03*
D15*
X214275000Y-119450000D03*
D16*
X211000000Y-107600000D03*
D15*
X202725000Y-117250000D03*
D16*
X216000000Y-109700000D03*
D13*
X126500000Y-79500000D03*
X115500000Y-79500000D03*
D14*
X121000000Y-79500000D03*
D12*
X121000000Y-85450000D03*
X116000000Y-83250000D03*
D16*
X121000000Y-73600000D03*
D15*
X124275000Y-85450000D03*
D16*
X126000000Y-75700000D03*
D15*
X112725000Y-83250000D03*
D12*
X175000000Y-102450000D03*
D13*
X169500000Y-96500000D03*
D14*
X175000000Y-96500000D03*
D13*
X180500000Y-96500000D03*
D12*
X170000000Y-100250000D03*
D16*
X175000000Y-90600000D03*
D15*
X178275000Y-102450000D03*
D18*
X166725000Y-100250000D03*
D16*
X180000000Y-92700000D03*
D12*
X121000000Y-102450000D03*
D13*
X115500000Y-96500000D03*
D14*
X121000000Y-96500000D03*
D13*
X126500000Y-96500000D03*
D12*
X116000000Y-100250000D03*
D15*
X124275000Y-102450000D03*
D16*
X121000000Y-90600000D03*
X126000000Y-92700000D03*
D15*
X112725000Y-100250000D03*
D13*
X142490000Y-130500000D03*
D14*
X147990000Y-130500000D03*
D12*
X142990000Y-134250000D03*
D13*
X153490000Y-130500000D03*
D12*
X147990000Y-136450000D03*
D16*
X147990000Y-124600000D03*
D19*
X151652500Y-136465000D03*
D16*
X152990000Y-126700000D03*
D20*
X139407500Y-134260000D03*
D21*
X158810000Y-72750000D03*
D22*
X161350000Y-72750000D03*
X163890000Y-72750000D03*
D13*
X54500000Y-79500000D03*
D14*
X49000000Y-79500000D03*
D12*
X44000000Y-83250000D03*
D13*
X43500000Y-79500000D03*
D12*
X49000000Y-85450000D03*
D15*
X52275000Y-85450000D03*
D16*
X49000000Y-73600000D03*
X54000000Y-75700000D03*
D15*
X40725000Y-83250000D03*
D13*
X270500000Y-130500000D03*
D14*
X265000000Y-130500000D03*
D13*
X259500000Y-130500000D03*
D12*
X265000000Y-136450000D03*
X260000000Y-134250000D03*
D16*
X265000000Y-124600000D03*
D15*
X268275000Y-136450000D03*
D16*
X270000000Y-126700000D03*
D15*
X256725000Y-134250000D03*
D12*
X242000000Y-134250000D03*
D14*
X247000000Y-130500000D03*
D12*
X247000000Y-136450000D03*
D13*
X252500000Y-130500000D03*
X241500000Y-130500000D03*
D16*
X247000000Y-124600000D03*
D15*
X250275000Y-136450000D03*
X238725000Y-134250000D03*
D16*
X252000000Y-126700000D03*
D10*
X162656726Y-131233274D03*
X161490000Y-130750000D03*
X163140000Y-132400000D03*
X162656726Y-133566726D03*
X161490000Y-134050000D03*
D11*
X161490000Y-132400000D03*
D10*
X159840000Y-132400000D03*
X160323274Y-133566726D03*
X160323274Y-131233274D03*
D12*
X112010000Y-136450000D03*
D13*
X106510000Y-130500000D03*
X117510000Y-130500000D03*
D14*
X112010000Y-130500000D03*
D12*
X107010000Y-134250000D03*
D23*
X115557500Y-136470000D03*
D16*
X112010000Y-124600000D03*
X117010000Y-126700000D03*
D24*
X104052500Y-134250000D03*
D14*
X247000000Y-113500000D03*
D13*
X241500000Y-113500000D03*
X252500000Y-113500000D03*
D12*
X247000000Y-119450000D03*
X242000000Y-117250000D03*
D16*
X247000000Y-107600000D03*
D15*
X250275000Y-119450000D03*
D16*
X252000000Y-109700000D03*
D15*
X238725000Y-117250000D03*
D14*
X85000000Y-130500000D03*
D13*
X79500000Y-130500000D03*
D12*
X85000000Y-136450000D03*
D13*
X90500000Y-130500000D03*
D12*
X80000000Y-134250000D03*
D15*
X88275000Y-136450000D03*
D16*
X85000000Y-124600000D03*
X90000000Y-126700000D03*
D15*
X76725000Y-134250000D03*
D12*
X175000000Y-136450000D03*
D13*
X169500000Y-130500000D03*
X180500000Y-130500000D03*
D14*
X175000000Y-130500000D03*
D12*
X170000000Y-134250000D03*
D16*
X175000000Y-124600000D03*
D15*
X178275000Y-136450000D03*
D16*
X180000000Y-126700000D03*
D15*
X166725000Y-134250000D03*
D25*
X161330000Y-84850000D03*
D26*
X145510000Y-121000000D03*
D27*
X150510000Y-121000000D03*
X148010000Y-121000000D03*
D28*
X142410000Y-113500000D03*
X153610000Y-113500000D03*
D27*
X150510000Y-106500000D03*
X145510000Y-106500000D03*
D12*
X26000000Y-83250000D03*
D13*
X36500000Y-79500000D03*
X25500000Y-79500000D03*
D12*
X31000000Y-85450000D03*
D14*
X31000000Y-79500000D03*
D16*
X31000000Y-73600000D03*
D15*
X34275000Y-85450000D03*
D16*
X36000000Y-75700000D03*
D15*
X22725000Y-83250000D03*
D13*
X169500000Y-79500000D03*
D12*
X175000000Y-85450000D03*
D13*
X180500000Y-79500000D03*
D14*
X175000000Y-79500000D03*
D12*
X170000000Y-83250000D03*
D15*
X178275000Y-85450000D03*
D16*
X175000000Y-73600000D03*
D15*
X166725000Y-83250000D03*
D16*
X180000000Y-75700000D03*
D12*
X229000000Y-85450000D03*
D13*
X223500000Y-79500000D03*
D14*
X229000000Y-79500000D03*
D13*
X234500000Y-79500000D03*
D12*
X224000000Y-83250000D03*
D16*
X229000000Y-73600000D03*
D15*
X232275000Y-85450000D03*
X220725000Y-83250000D03*
D16*
X234000000Y-75700000D03*
D12*
X26000000Y-134250000D03*
D14*
X31000000Y-130500000D03*
D12*
X31000000Y-136450000D03*
D13*
X25500000Y-130500000D03*
X36500000Y-130500000D03*
D15*
X34275000Y-136450000D03*
D16*
X31000000Y-124600000D03*
D15*
X22725000Y-134250000D03*
D16*
X36000000Y-126700000D03*
D14*
X193000000Y-79500000D03*
D13*
X198500000Y-79500000D03*
D12*
X193000000Y-85450000D03*
D13*
X187500000Y-79500000D03*
D12*
X188000000Y-83250000D03*
D16*
X193000000Y-73600000D03*
D15*
X196275000Y-85450000D03*
X184725000Y-83250000D03*
D16*
X198000000Y-75700000D03*
D12*
X121000000Y-119450000D03*
D14*
X121000000Y-113500000D03*
D13*
X126500000Y-113500000D03*
D12*
X116000000Y-117250000D03*
D13*
X115500000Y-113500000D03*
D16*
X121000000Y-107600000D03*
D15*
X124275000Y-119450000D03*
D16*
X126000000Y-109700000D03*
D15*
X112725000Y-117250000D03*
D13*
X54500000Y-96500000D03*
X43500000Y-96500000D03*
D12*
X49000000Y-102450000D03*
X44000000Y-100250000D03*
D14*
X49000000Y-96500000D03*
D16*
X49000000Y-90600000D03*
D15*
X52275000Y-102450000D03*
D16*
X54000000Y-92700000D03*
D15*
X40725000Y-100250000D03*
D13*
X198500000Y-113500000D03*
D14*
X193000000Y-113500000D03*
D12*
X188000000Y-117250000D03*
D13*
X187500000Y-113500000D03*
D12*
X193000000Y-119450000D03*
D15*
X196275000Y-119450000D03*
D16*
X193000000Y-107600000D03*
D15*
X184725000Y-117250000D03*
D16*
X198000000Y-109700000D03*
D13*
X61500000Y-79500000D03*
D12*
X67000000Y-85450000D03*
X62000000Y-83250000D03*
D13*
X72500000Y-79500000D03*
D14*
X67000000Y-79500000D03*
D16*
X67000000Y-73600000D03*
D15*
X70275000Y-85450000D03*
X58725000Y-83250000D03*
D16*
X72000000Y-75700000D03*
D13*
X187500000Y-96500000D03*
X198500000Y-96500000D03*
D12*
X188000000Y-100250000D03*
X193000000Y-102450000D03*
D14*
X193000000Y-96500000D03*
D15*
X196275000Y-102450000D03*
D16*
X193000000Y-90600000D03*
X198000000Y-92700000D03*
D15*
X184725000Y-100250000D03*
D13*
X97500000Y-96500000D03*
D12*
X103000000Y-102450000D03*
X98000000Y-100250000D03*
D14*
X103000000Y-96500000D03*
D13*
X108500000Y-96500000D03*
D16*
X103000000Y-90600000D03*
D15*
X106275000Y-102450000D03*
X94725000Y-100250000D03*
D16*
X108000000Y-92700000D03*
D12*
X211000000Y-85450000D03*
D13*
X205500000Y-79500000D03*
D14*
X211000000Y-79500000D03*
D12*
X206000000Y-83250000D03*
D13*
X216500000Y-79500000D03*
D15*
X214275000Y-85450000D03*
D16*
X211000000Y-73600000D03*
D15*
X202725000Y-83250000D03*
D16*
X216000000Y-75700000D03*
D13*
X97500000Y-130500000D03*
D12*
X98000000Y-134250000D03*
D13*
X108500000Y-130500000D03*
D14*
X103000000Y-130500000D03*
D12*
X103000000Y-136450000D03*
D16*
X103000000Y-124600000D03*
D29*
X106627500Y-136485000D03*
D16*
X108000000Y-126700000D03*
D15*
X94725000Y-134250000D03*
D13*
X178490000Y-130500000D03*
D12*
X183990000Y-136450000D03*
D13*
X189490000Y-130500000D03*
D12*
X178990000Y-134250000D03*
D14*
X183990000Y-130500000D03*
D16*
X183990000Y-124600000D03*
D15*
X187265000Y-136450000D03*
D30*
X175357500Y-134235000D03*
D16*
X188990000Y-126700000D03*
D12*
X247000000Y-102450000D03*
D13*
X252500000Y-96500000D03*
X241500000Y-96500000D03*
D12*
X242000000Y-100250000D03*
D14*
X247000000Y-96500000D03*
D16*
X247000000Y-90600000D03*
D15*
X250275000Y-102450000D03*
D16*
X252000000Y-92700000D03*
D15*
X238725000Y-100250000D03*
D12*
X98000000Y-117250000D03*
D13*
X108500000Y-113500000D03*
D14*
X103000000Y-113500000D03*
D13*
X97500000Y-113500000D03*
D12*
X103000000Y-119450000D03*
D15*
X106275000Y-119450000D03*
D16*
X103000000Y-107600000D03*
D15*
X94725000Y-117250000D03*
D16*
X108000000Y-109700000D03*
D12*
X265000000Y-102450000D03*
D13*
X259500000Y-96500000D03*
D12*
X260000000Y-100250000D03*
D14*
X265000000Y-96500000D03*
D13*
X270500000Y-96500000D03*
D16*
X265000000Y-90600000D03*
D15*
X268275000Y-102450000D03*
X256725000Y-100250000D03*
D16*
X270000000Y-92700000D03*
D14*
X229000000Y-96500000D03*
D13*
X223500000Y-96500000D03*
D12*
X229000000Y-102450000D03*
D13*
X234500000Y-96500000D03*
D12*
X224000000Y-100250000D03*
D16*
X229000000Y-90600000D03*
D15*
X232275000Y-102450000D03*
X220725000Y-100250000D03*
D16*
X234000000Y-92700000D03*
D12*
X31000000Y-102450000D03*
D13*
X25500000Y-96500000D03*
D14*
X31000000Y-96500000D03*
D12*
X26000000Y-100250000D03*
D13*
X36500000Y-96500000D03*
D16*
X31000000Y-90600000D03*
D15*
X34275000Y-102450000D03*
D16*
X36000000Y-92700000D03*
D15*
X22725000Y-100250000D03*
D12*
X31000000Y-119450000D03*
D13*
X36500000Y-113500000D03*
D12*
X26000000Y-117250000D03*
D13*
X25500000Y-113500000D03*
D14*
X31000000Y-113500000D03*
D16*
X31000000Y-107600000D03*
D15*
X34275000Y-119450000D03*
D16*
X36000000Y-109700000D03*
D15*
X22725000Y-117250000D03*
D13*
X153510000Y-113500000D03*
D14*
X148010000Y-113500000D03*
D12*
X148010000Y-119450000D03*
X143010000Y-117250000D03*
D13*
X142510000Y-113500000D03*
D31*
X152083750Y-119506250D03*
D32*
X151255000Y-119025000D03*
D16*
X148010000Y-107600000D03*
D33*
X139397500Y-117250000D03*
D16*
X153010000Y-109700000D03*
D12*
X49000000Y-119450000D03*
D14*
X49000000Y-113500000D03*
D13*
X54500000Y-113500000D03*
D12*
X44000000Y-117250000D03*
D13*
X43500000Y-113500000D03*
D15*
X52275000Y-119450000D03*
D16*
X49000000Y-107600000D03*
X54000000Y-109700000D03*
D15*
X40725000Y-117250000D03*
D14*
X265000000Y-79500000D03*
D13*
X259500000Y-79500000D03*
D12*
X265000000Y-85450000D03*
D13*
X270500000Y-79500000D03*
D12*
X260000000Y-83250000D03*
D16*
X265000000Y-73600000D03*
D15*
X268275000Y-85450000D03*
D16*
X270000000Y-75700000D03*
D15*
X256725000Y-83250000D03*
D34*
X145100000Y-75830000D03*
X150880000Y-75830000D03*
D35*
X152310000Y-76360000D03*
D36*
X152310000Y-72180000D03*
D35*
X143670000Y-76360000D03*
D36*
X143670000Y-72180000D03*
D13*
X198500000Y-130500000D03*
X187500000Y-130500000D03*
D12*
X193000000Y-136450000D03*
D14*
X193000000Y-130500000D03*
D12*
X188000000Y-134250000D03*
D16*
X193000000Y-124600000D03*
D15*
X196275000Y-136450000D03*
D16*
X198000000Y-126700000D03*
D37*
X184407500Y-134235000D03*
D12*
X229000000Y-136450000D03*
X224000000Y-134250000D03*
D13*
X223500000Y-130500000D03*
D14*
X229000000Y-130500000D03*
D13*
X234500000Y-130500000D03*
D15*
X232275000Y-136450000D03*
D16*
X229000000Y-124600000D03*
D15*
X220725000Y-134250000D03*
D16*
X234000000Y-126700000D03*
D10*
X135656726Y-131233274D03*
X136140000Y-132400000D03*
D11*
X134490000Y-132400000D03*
D10*
X134490000Y-134050000D03*
X135656726Y-133566726D03*
X133323274Y-131233274D03*
X133323274Y-133566726D03*
X132840000Y-132400000D03*
X134490000Y-130750000D03*
D13*
X79500000Y-96500000D03*
D14*
X85000000Y-96500000D03*
D13*
X90500000Y-96500000D03*
D12*
X80000000Y-100250000D03*
X85000000Y-102450000D03*
D15*
X88275000Y-102450000D03*
D16*
X85000000Y-90600000D03*
X90000000Y-92700000D03*
D15*
X76725000Y-100250000D03*
D12*
X85000000Y-85450000D03*
D13*
X90500000Y-79500000D03*
D14*
X85000000Y-79500000D03*
D12*
X80000000Y-83250000D03*
D13*
X79500000Y-79500000D03*
D16*
X85000000Y-73600000D03*
D15*
X88275000Y-85450000D03*
D16*
X90000000Y-75700000D03*
D15*
X76725000Y-83250000D03*
D14*
X157000000Y-113500000D03*
D12*
X152000000Y-117250000D03*
D13*
X162500000Y-113500000D03*
X151500000Y-113500000D03*
D12*
X157000000Y-119450000D03*
D16*
X157000000Y-107600000D03*
D15*
X160275000Y-119450000D03*
D38*
X148452500Y-117225000D03*
D16*
X162000000Y-109700000D03*
D12*
X206000000Y-134250000D03*
D14*
X211000000Y-130500000D03*
D12*
X211000000Y-136450000D03*
D13*
X216500000Y-130500000D03*
X205500000Y-130500000D03*
D16*
X211000000Y-124600000D03*
D15*
X214275000Y-136450000D03*
D16*
X216000000Y-126700000D03*
D15*
X202725000Y-134250000D03*
D12*
X260000000Y-117250000D03*
D13*
X259500000Y-113500000D03*
D14*
X265000000Y-113500000D03*
D12*
X265000000Y-119450000D03*
D13*
X270500000Y-113500000D03*
D16*
X265000000Y-107600000D03*
D15*
X268275000Y-119450000D03*
X256725000Y-117250000D03*
D16*
X270000000Y-109700000D03*
D12*
X152000000Y-134250000D03*
X157000000Y-136450000D03*
D14*
X157000000Y-130500000D03*
D13*
X162500000Y-130500000D03*
X151500000Y-130500000D03*
D16*
X157000000Y-124600000D03*
D15*
X160275000Y-136450000D03*
D16*
X162000000Y-126700000D03*
D15*
X148725000Y-134250000D03*
D39*
X142970000Y-121890000D03*
D22*
X140430000Y-121790000D03*
X137890000Y-121790000D03*
X135350000Y-121790000D03*
X132810000Y-121790000D03*
D14*
X67000000Y-130500000D03*
D12*
X67000000Y-136450000D03*
D13*
X61500000Y-130500000D03*
D12*
X62000000Y-134250000D03*
D13*
X72500000Y-130500000D03*
D15*
X70275000Y-136450000D03*
D16*
X67000000Y-124600000D03*
D15*
X58725000Y-134250000D03*
D16*
X72000000Y-126700000D03*
D14*
X103000000Y-79500000D03*
D13*
X108500000Y-79500000D03*
X97500000Y-79500000D03*
D12*
X103000000Y-85450000D03*
X98000000Y-83250000D03*
D16*
X103000000Y-73600000D03*
D15*
X106275000Y-85450000D03*
D16*
X108000000Y-75700000D03*
D15*
X94725000Y-83250000D03*
D13*
X90500000Y-113500000D03*
D12*
X85000000Y-119450000D03*
D14*
X85000000Y-113500000D03*
D13*
X79500000Y-113500000D03*
D12*
X80000000Y-117250000D03*
D15*
X88275000Y-119450000D03*
D16*
X85000000Y-107600000D03*
X90000000Y-109700000D03*
D15*
X76725000Y-117250000D03*
D12*
X242000000Y-83250000D03*
D13*
X252500000Y-79500000D03*
D14*
X247000000Y-79500000D03*
D12*
X247000000Y-85450000D03*
D13*
X241500000Y-79500000D03*
D15*
X250275000Y-85450000D03*
D16*
X247000000Y-73600000D03*
X252000000Y-75700000D03*
D15*
X238725000Y-83250000D03*
D13*
X234500000Y-113500000D03*
D14*
X229000000Y-113500000D03*
D12*
X224000000Y-117250000D03*
X229000000Y-119450000D03*
D13*
X223500000Y-113500000D03*
D15*
X232275000Y-119450000D03*
D16*
X229000000Y-107600000D03*
X234000000Y-109700000D03*
D15*
X220725000Y-117250000D03*
G36*
X113524773Y-135599000D02*
G01*
X113524773Y-135601000D01*
X113523604Y-135601919D01*
X113455511Y-135621913D01*
X113409418Y-135675107D01*
X113399387Y-135744879D01*
X113408947Y-135772718D01*
X113408563Y-135774681D01*
X113407852Y-135775181D01*
X113448844Y-135880593D01*
X113448540Y-135882570D01*
X113446676Y-135883295D01*
X113445132Y-135882083D01*
X113389272Y-135747224D01*
X113299693Y-135601045D01*
X113299640Y-135599046D01*
X113301398Y-135598000D01*
X113523041Y-135598000D01*
X113524773Y-135599000D01*
G37*
G36*
X149504773Y-135599000D02*
G01*
X149504773Y-135601000D01*
X149503604Y-135601919D01*
X149435511Y-135621913D01*
X149389418Y-135675107D01*
X149379387Y-135744879D01*
X149388947Y-135772718D01*
X149388563Y-135774681D01*
X149387852Y-135775181D01*
X149428844Y-135880593D01*
X149428540Y-135882570D01*
X149426676Y-135883295D01*
X149425132Y-135882083D01*
X149369272Y-135747224D01*
X149279693Y-135601045D01*
X149279640Y-135599046D01*
X149281398Y-135598000D01*
X149503041Y-135598000D01*
X149504773Y-135599000D01*
G37*
G36*
X104514773Y-135599000D02*
G01*
X104514773Y-135601000D01*
X104513604Y-135601919D01*
X104445511Y-135621913D01*
X104399418Y-135675107D01*
X104389387Y-135744879D01*
X104398947Y-135772718D01*
X104398563Y-135774681D01*
X104397852Y-135775181D01*
X104438844Y-135880593D01*
X104438540Y-135882570D01*
X104436676Y-135883295D01*
X104435132Y-135882083D01*
X104379272Y-135747224D01*
X104289693Y-135601045D01*
X104289640Y-135599046D01*
X104291398Y-135598000D01*
X104513041Y-135598000D01*
X104514773Y-135599000D01*
G37*
G36*
X114615618Y-134940440D02*
G01*
X114620728Y-134952776D01*
X114710307Y-135098955D01*
X114710360Y-135100954D01*
X114708602Y-135102000D01*
X114530199Y-135102000D01*
X114526670Y-135102702D01*
X114524776Y-135102059D01*
X114524386Y-135100097D01*
X114525353Y-135098968D01*
X114580565Y-135070088D01*
X114615396Y-135008925D01*
X114611773Y-134941312D01*
X114612679Y-134939529D01*
X114614676Y-134939422D01*
X114615618Y-134940440D01*
G37*
G36*
X141548735Y-134803111D02*
G01*
X141610728Y-134952776D01*
X141700307Y-135098955D01*
X141700360Y-135100954D01*
X141698602Y-135102000D01*
X141479967Y-135102000D01*
X141478235Y-135101000D01*
X141478235Y-135099000D01*
X141479404Y-135098081D01*
X141547497Y-135078087D01*
X141593590Y-135024893D01*
X141603623Y-134955107D01*
X141589991Y-134913684D01*
X141572565Y-134881251D01*
X141572445Y-134880980D01*
X141545005Y-134804552D01*
X141545361Y-134802584D01*
X141547243Y-134801908D01*
X141548735Y-134803111D01*
G37*
G36*
X186558735Y-134803111D02*
G01*
X186620728Y-134952776D01*
X186710307Y-135098955D01*
X186710360Y-135100954D01*
X186708602Y-135102000D01*
X186489967Y-135102000D01*
X186488235Y-135101000D01*
X186488235Y-135099000D01*
X186489404Y-135098081D01*
X186557497Y-135078087D01*
X186603590Y-135024893D01*
X186613623Y-134955107D01*
X186599991Y-134913684D01*
X186582565Y-134881251D01*
X186582445Y-134880980D01*
X186555005Y-134804552D01*
X186555361Y-134802584D01*
X186557243Y-134801908D01*
X186558735Y-134803111D01*
G37*
G36*
X177548735Y-134803111D02*
G01*
X177610728Y-134952776D01*
X177700307Y-135098955D01*
X177700360Y-135100954D01*
X177698602Y-135102000D01*
X177479967Y-135102000D01*
X177478235Y-135101000D01*
X177478235Y-135099000D01*
X177479404Y-135098081D01*
X177547497Y-135078087D01*
X177593590Y-135024893D01*
X177603623Y-134955107D01*
X177589991Y-134913684D01*
X177572565Y-134881251D01*
X177572445Y-134880980D01*
X177545005Y-134804552D01*
X177545361Y-134802584D01*
X177547243Y-134801908D01*
X177548735Y-134803111D01*
G37*
G36*
X188377315Y-130294448D02*
G01*
X188413481Y-130349791D01*
X188477728Y-130378543D01*
X188547318Y-130367996D01*
X188600283Y-130321390D01*
X188612192Y-130295788D01*
X188613829Y-130294640D01*
X188615642Y-130295483D01*
X188615907Y-130297250D01*
X188610754Y-130313110D01*
X188591111Y-130500000D01*
X188610754Y-130686890D01*
X188616344Y-130704093D01*
X188615928Y-130706049D01*
X188614026Y-130706667D01*
X188612753Y-130705782D01*
X188578699Y-130652046D01*
X188514861Y-130622402D01*
X188445132Y-130631976D01*
X188391517Y-130677841D01*
X188377652Y-130706593D01*
X188351744Y-130784476D01*
X188350248Y-130785804D01*
X188348350Y-130785173D01*
X188347944Y-130783227D01*
X188379246Y-130686890D01*
X188398889Y-130500000D01*
X188379246Y-130313110D01*
X188373739Y-130296160D01*
X188374155Y-130294204D01*
X188376057Y-130293586D01*
X188377315Y-130294448D01*
G37*
G36*
X107387315Y-130294448D02*
G01*
X107423481Y-130349791D01*
X107487728Y-130378543D01*
X107557318Y-130367996D01*
X107610283Y-130321390D01*
X107622192Y-130295788D01*
X107623829Y-130294640D01*
X107625642Y-130295483D01*
X107625907Y-130297250D01*
X107620754Y-130313110D01*
X107601111Y-130500000D01*
X107620754Y-130686890D01*
X107626344Y-130704093D01*
X107625928Y-130706049D01*
X107624026Y-130706667D01*
X107622753Y-130705782D01*
X107588699Y-130652046D01*
X107524861Y-130622402D01*
X107455132Y-130631976D01*
X107401517Y-130677841D01*
X107387652Y-130706593D01*
X107361744Y-130784476D01*
X107360248Y-130785804D01*
X107358350Y-130785173D01*
X107357944Y-130783227D01*
X107389246Y-130686890D01*
X107408889Y-130500000D01*
X107389246Y-130313110D01*
X107383739Y-130296160D01*
X107384155Y-130294204D01*
X107386057Y-130293586D01*
X107387315Y-130294448D01*
G37*
G36*
X152377315Y-130294448D02*
G01*
X152413481Y-130349791D01*
X152477728Y-130378543D01*
X152547318Y-130367996D01*
X152600283Y-130321390D01*
X152612192Y-130295788D01*
X152613829Y-130294640D01*
X152615642Y-130295483D01*
X152615907Y-130297250D01*
X152610754Y-130313110D01*
X152591111Y-130500000D01*
X152610754Y-130686890D01*
X152616344Y-130704093D01*
X152615928Y-130706049D01*
X152614026Y-130706667D01*
X152612753Y-130705782D01*
X152578699Y-130652046D01*
X152514861Y-130622402D01*
X152445132Y-130631976D01*
X152391517Y-130677841D01*
X152377652Y-130706593D01*
X152351744Y-130784476D01*
X152350248Y-130785804D01*
X152348350Y-130785173D01*
X152347944Y-130783227D01*
X152379246Y-130686890D01*
X152398889Y-130500000D01*
X152379246Y-130313110D01*
X152373739Y-130296160D01*
X152374155Y-130294204D01*
X152376057Y-130293586D01*
X152377315Y-130294448D01*
G37*
G36*
X179619949Y-130314340D02*
G01*
X179620461Y-130315898D01*
X179601111Y-130500000D01*
X179619144Y-130671571D01*
X179618331Y-130673398D01*
X179616342Y-130673607D01*
X179615487Y-130672624D01*
X179615414Y-130672670D01*
X179577423Y-130612720D01*
X179513585Y-130583076D01*
X179443856Y-130592650D01*
X179390322Y-130638445D01*
X179373471Y-130684379D01*
X179371935Y-130685660D01*
X179370058Y-130684972D01*
X179369604Y-130683481D01*
X179388889Y-130500000D01*
X179370198Y-130322168D01*
X179371011Y-130320341D01*
X179373000Y-130320132D01*
X179374102Y-130321381D01*
X179374685Y-130323313D01*
X179413351Y-130382481D01*
X179477598Y-130411233D01*
X179547188Y-130400686D01*
X179600076Y-130354148D01*
X179610956Y-130323147D01*
X179612473Y-130321844D01*
X179613448Y-130321903D01*
X179614316Y-130322178D01*
X179616566Y-130315084D01*
X179618043Y-130313736D01*
X179619949Y-130314340D01*
G37*
G36*
X116629949Y-130314340D02*
G01*
X116630461Y-130315898D01*
X116611111Y-130500000D01*
X116629144Y-130671571D01*
X116628331Y-130673398D01*
X116626342Y-130673607D01*
X116625487Y-130672624D01*
X116625414Y-130672670D01*
X116587423Y-130612720D01*
X116523585Y-130583076D01*
X116453856Y-130592650D01*
X116400322Y-130638445D01*
X116383471Y-130684379D01*
X116381935Y-130685660D01*
X116380058Y-130684972D01*
X116379604Y-130683481D01*
X116398889Y-130500000D01*
X116380198Y-130322168D01*
X116381011Y-130320341D01*
X116383000Y-130320132D01*
X116384102Y-130321381D01*
X116384685Y-130323313D01*
X116423351Y-130382481D01*
X116487598Y-130411233D01*
X116557188Y-130400686D01*
X116610076Y-130354148D01*
X116620956Y-130323147D01*
X116622473Y-130321844D01*
X116623448Y-130321903D01*
X116624316Y-130322178D01*
X116626566Y-130315084D01*
X116628043Y-130313736D01*
X116629949Y-130314340D01*
G37*
G36*
X143619949Y-130314340D02*
G01*
X143620461Y-130315898D01*
X143601111Y-130500000D01*
X143619144Y-130671571D01*
X143618331Y-130673398D01*
X143616342Y-130673607D01*
X143615487Y-130672624D01*
X143615414Y-130672670D01*
X143577423Y-130612720D01*
X143513585Y-130583076D01*
X143443856Y-130592650D01*
X143390322Y-130638445D01*
X143373471Y-130684379D01*
X143371935Y-130685660D01*
X143370058Y-130684972D01*
X143369604Y-130683481D01*
X143388889Y-130500000D01*
X143370198Y-130322168D01*
X143371011Y-130320341D01*
X143373000Y-130320132D01*
X143374102Y-130321381D01*
X143374685Y-130323313D01*
X143413351Y-130382481D01*
X143477598Y-130411233D01*
X143547188Y-130400686D01*
X143600076Y-130354148D01*
X143610956Y-130323147D01*
X143612473Y-130321844D01*
X143613448Y-130321903D01*
X143614316Y-130322178D01*
X143616566Y-130315084D01*
X143618043Y-130313736D01*
X143619949Y-130314340D01*
G37*
G36*
X138054574Y-120672001D02*
G01*
X138090114Y-120702355D01*
X138297224Y-120829272D01*
X138521643Y-120922229D01*
X138679200Y-120960055D01*
X138680651Y-120961432D01*
X138680184Y-120963377D01*
X138678360Y-120963965D01*
X138655384Y-120959603D01*
X138585041Y-120966517D01*
X138529834Y-121010181D01*
X138506999Y-121076759D01*
X138523835Y-121145324D01*
X138534973Y-121161421D01*
X138571747Y-121206510D01*
X138572067Y-121208484D01*
X138570517Y-121209748D01*
X138568711Y-121209112D01*
X138490875Y-121122666D01*
X138338992Y-121012317D01*
X138167494Y-120935961D01*
X137983867Y-120896930D01*
X137973293Y-120896930D01*
X137971561Y-120895930D01*
X137971561Y-120893930D01*
X137972933Y-120892963D01*
X138029569Y-120882606D01*
X138080970Y-120834521D01*
X138098214Y-120766281D01*
X138075787Y-120699430D01*
X138051844Y-120674920D01*
X138051349Y-120672982D01*
X138052780Y-120671584D01*
X138054574Y-120672001D01*
G37*
G36*
X151571180Y-120288929D02*
G01*
X151572000Y-120290544D01*
X151572000Y-120799801D01*
X151575691Y-120818355D01*
X151586087Y-120833913D01*
X151601645Y-120844309D01*
X151620199Y-120848000D01*
X151684885Y-120848000D01*
X151686617Y-120849000D01*
X151686617Y-120851000D01*
X151685448Y-120851919D01*
X151617352Y-120871914D01*
X151571241Y-120925130D01*
X151560686Y-120987221D01*
X151559410Y-120988761D01*
X151557438Y-120988426D01*
X151556724Y-120987081D01*
X151538033Y-120796448D01*
X151478914Y-120600641D01*
X151382893Y-120420051D01*
X151341170Y-120368894D01*
X151340850Y-120366920D01*
X151342400Y-120365656D01*
X151343920Y-120366030D01*
X151399209Y-120407522D01*
X151469411Y-120412627D01*
X151531224Y-120378968D01*
X151565122Y-120317066D01*
X151568012Y-120290329D01*
X151569192Y-120288715D01*
X151571180Y-120288929D01*
G37*
G36*
X146501344Y-119776631D02*
G01*
X146537771Y-119928357D01*
X146630728Y-120152776D01*
X146757645Y-120359885D01*
X146785578Y-120392591D01*
X146785942Y-120394558D01*
X146784421Y-120395857D01*
X146782857Y-120395490D01*
X146730791Y-120356416D01*
X146660589Y-120351311D01*
X146598776Y-120384970D01*
X146564878Y-120446872D01*
X146561988Y-120473609D01*
X146560808Y-120475223D01*
X146558820Y-120475009D01*
X146558000Y-120473394D01*
X146558000Y-120000199D01*
X146554309Y-119981645D01*
X146543913Y-119966087D01*
X146528355Y-119955691D01*
X146509801Y-119952000D01*
X146379043Y-119952000D01*
X146377311Y-119951000D01*
X146377311Y-119949000D01*
X146378480Y-119948081D01*
X146446576Y-119928086D01*
X146492649Y-119874914D01*
X146501579Y-119798306D01*
X146497437Y-119777488D01*
X146498080Y-119775594D01*
X146500042Y-119775204D01*
X146501344Y-119776631D01*
G37*
G36*
X149970199Y-119898000D02*
G01*
X151164343Y-119898000D01*
X151166075Y-119899000D01*
X151166075Y-119901000D01*
X151164906Y-119901919D01*
X151096809Y-119921914D01*
X151050717Y-119975107D01*
X151040700Y-120044777D01*
X151070001Y-120108936D01*
X151081530Y-120118842D01*
X151082192Y-120120729D01*
X151080889Y-120122246D01*
X151079276Y-120122118D01*
X150916115Y-120033898D01*
X150720726Y-119973414D01*
X150517317Y-119952036D01*
X150313628Y-119970572D01*
X150117413Y-120028322D01*
X149961441Y-120109861D01*
X149959442Y-120109778D01*
X149958516Y-120108005D01*
X149959049Y-120106728D01*
X150001551Y-120060967D01*
X150013966Y-119991685D01*
X149986899Y-119926558D01*
X149959102Y-119901169D01*
X149956007Y-119899101D01*
X149955122Y-119897307D01*
X149956233Y-119895644D01*
X149957508Y-119895476D01*
X149970199Y-119898000D01*
G37*
G36*
X149469671Y-118549000D02*
G01*
X149469671Y-118551000D01*
X149468866Y-118551772D01*
X149406255Y-118584521D01*
X149371423Y-118645684D01*
X149375200Y-118716173D01*
X149376030Y-118717988D01*
X149375841Y-118719979D01*
X149374022Y-118720811D01*
X149372506Y-118719865D01*
X149269053Y-118551045D01*
X149269000Y-118549046D01*
X149270758Y-118548000D01*
X149467939Y-118548000D01*
X149469671Y-118549000D01*
G37*
G36*
X141669739Y-118016436D02*
G01*
X141757645Y-118159885D01*
X141876204Y-118298701D01*
X141876568Y-118300668D01*
X141875047Y-118301967D01*
X141874683Y-118302000D01*
X141612028Y-118302000D01*
X141610296Y-118301000D01*
X141610296Y-118299000D01*
X141611465Y-118298081D01*
X141679558Y-118278087D01*
X141725651Y-118224893D01*
X141735673Y-118155184D01*
X141712031Y-118098010D01*
X141701433Y-118083818D01*
X141701273Y-118083568D01*
X141666272Y-118018428D01*
X141666333Y-118016429D01*
X141668095Y-118015482D01*
X141669739Y-118016436D01*
G37*
G36*
X150635187Y-117976370D02*
G01*
X150740947Y-118148955D01*
X150741000Y-118150954D01*
X150739242Y-118152000D01*
X150516833Y-118152000D01*
X150515101Y-118151000D01*
X150515101Y-118149000D01*
X150516270Y-118148081D01*
X150584363Y-118128087D01*
X150630456Y-118074893D01*
X150640489Y-118005107D01*
X150631582Y-117978040D01*
X150631991Y-117976082D01*
X150633890Y-117975457D01*
X150635187Y-117976370D01*
G37*
G36*
X143461919Y-113036707D02*
G01*
X143481913Y-113104800D01*
X143535107Y-113150893D01*
X143604776Y-113160910D01*
X143668906Y-113131622D01*
X143693151Y-113101625D01*
X143695017Y-113100906D01*
X143696572Y-113102164D01*
X143696438Y-113103882D01*
X143678824Y-113134389D01*
X143620754Y-113313110D01*
X143601111Y-113500000D01*
X143620754Y-113686890D01*
X143678824Y-113865611D01*
X143697645Y-113898210D01*
X143697645Y-113900210D01*
X143695913Y-113901210D01*
X143694464Y-113900588D01*
X143649595Y-113853410D01*
X143581215Y-113836728D01*
X143514671Y-113859665D01*
X143471029Y-113915014D01*
X143461964Y-113961889D01*
X143460653Y-113963399D01*
X143458689Y-113963020D01*
X143458000Y-113961509D01*
X143458000Y-113037270D01*
X143459000Y-113035538D01*
X143461000Y-113035538D01*
X143461919Y-113036707D01*
G37*
G36*
X152561300Y-113074169D02*
G01*
X152562000Y-113075689D01*
X152562000Y-113928696D01*
X152561000Y-113930428D01*
X152559000Y-113930428D01*
X152558081Y-113929259D01*
X152538087Y-113861166D01*
X152484893Y-113815073D01*
X152415224Y-113805056D01*
X152351088Y-113834346D01*
X152325094Y-113866054D01*
X152323222Y-113866759D01*
X152321676Y-113865491D01*
X152321645Y-113864168D01*
X152379246Y-113686890D01*
X152398889Y-113500000D01*
X152379246Y-113313110D01*
X152323025Y-113140080D01*
X152323441Y-113138124D01*
X152325343Y-113137506D01*
X152326357Y-113138064D01*
X152371921Y-113184652D01*
X152440526Y-113200376D01*
X152506744Y-113176513D01*
X152549614Y-113120553D01*
X152558034Y-113075323D01*
X152559334Y-113073803D01*
X152561300Y-113074169D01*
G37*
M02*
